<?xml version="1.0" standalone="no"?>
<!DOCTYPE svg PUBLIC "-//W3C//DTD SVG 20010904//EN"
 "http://www.w3.org/TR/2001/REC-SVG-20010904/DTD/svg10.dtd">
<svg version="1.0" xmlns="http://www.w3.org/2000/svg"
 width="700.000000pt" height="700.000000pt" viewBox="0 0 700.000000 700.000000"
 preserveAspectRatio="xMidYMid meet">
<metadata>
Created by potrace 1.14, written by Peter Selinger 2001-2017
</metadata>
<g transform="translate(0.000000,700.000000) scale(0.100000,-0.100000)"
fill="#000000" stroke="none">
<path d="M5 6802 c0 -143 3 -197 12 -197 6 0 15 -3 19 -7 3 -4 -2 -6 -13 -4
-17 4 -19 -1 -19 -54 1 -35 7 -64 16 -76 14 -16 13 -17 -4 -11 -16 6 -17 5 -6
-8 11 -13 15 -13 22 -3 6 9 7 5 3 -9 -7 -25 4 -30 24 -10 10 10 12 9 11 -3 -5
-31 0 -42 16 -36 10 4 14 1 11 -6 -2 -7 -14 -12 -26 -11 -11 2 -21 -1 -21 -5
0 -12 33 -11 49 2 10 8 19 4 37 -17 16 -19 28 -25 41 -20 16 6 16 5 4 -10 -8
-10 -11 -20 -8 -23 3 -3 10 4 17 15 6 12 8 21 4 21 -3 0 -1 7 6 15 7 8 17 15
23 15 6 0 2 -7 -9 -16 -18 -15 -18 -15 6 -10 14 3 32 1 40 -4 9 -6 18 -3 26 8
12 15 12 14 7 -6 -4 -15 -11 -21 -21 -17 -12 4 -13 3 -2 -10 12 -14 15 -14 31
1 10 9 24 14 31 11 8 -3 5 -6 -7 -6 -17 -1 -17 -3 -5 -11 13 -9 13 -10 0 -10
-13 0 -13 -1 0 -10 8 -5 10 -10 5 -10 -6 0 -16 5 -23 12 -8 8 -12 8 -12 1 0
-16 29 -24 48 -14 10 5 16 12 15 15 -2 3 -3 12 -3 19 0 8 3 7 10 -3 5 -9 5
-19 0 -26 -6 -6 -7 -14 -3 -18 4 -4 13 4 20 16 9 18 12 19 13 6 0 -11 6 -16
20 -13 23 4 26 -5 8 -24 -11 -11 -10 -13 5 -7 10 3 21 6 23 6 3 0 2 5 -2 12
-4 7 -3 8 4 4 17 -10 15 -14 -17 -31 -30 -15 -30 -15 -25 13 4 26 3 26 -11 8
-8 -11 -15 -14 -15 -7 0 7 -4 10 -9 6 -5 -3 -13 -1 -16 5 -5 8 -11 8 -19 1 -7
-6 -16 -8 -19 -4 -4 3 -7 1 -7 -5 0 -15 13 -15 28 0 15 15 16 3 1 -24 -8 -15
-8 -23 2 -32 9 -8 10 -8 5 1 -8 15 3 43 19 43 7 0 18 -7 25 -15 15 -18 0 -20
-20 -2 -12 10 -12 9 -1 -5 7 -9 20 -16 29 -16 9 0 22 -1 27 -3 6 -2 10 1 10 6
0 6 -6 9 -15 7 -10 -2 -10 1 3 9 15 9 21 7 33 -8 14 -17 15 -17 10 2 -10 35 8
47 28 20 15 -20 22 -23 40 -14 19 9 19 8 -1 -7 -13 -9 -23 -21 -23 -27 0 -8 3
-8 11 0 8 8 16 6 30 -8 23 -23 24 -26 2 -26 -40 0 -44 -3 -35 -20 10 -16 17
-20 57 -25 11 -2 23 -10 27 -18 5 -12 7 -12 7 3 1 16 2 17 27 1 18 -12 22 -19
13 -25 -7 -4 -14 -15 -15 -23 -1 -9 2 -14 7 -10 5 3 7 10 3 15 -3 6 0 10 7 8
35 -4 43 1 23 17 -10 8 -13 12 -5 8 9 -5 12 -3 7 5 -4 6 -12 8 -18 5 -7 -4 -8
-2 -4 4 5 8 1 10 -11 6 -15 -5 -15 -4 -3 5 11 8 6 10 -22 7 -21 -2 -35 0 -32
5 3 5 9 7 14 4 5 -3 11 -1 15 5 8 14 -18 13 -32 -1 -6 -6 -17 -9 -25 -6 -9 4
-6 8 9 12 13 4 20 11 17 16 -3 5 2 6 11 3 11 -5 14 -2 9 10 -3 9 -10 13 -15
10 -5 -3 -6 2 -3 10 6 16 25 23 23 9 -3 -20 2 -34 11 -28 6 4 7 -1 3 -12 -5
-15 -3 -16 8 -5 7 6 17 12 23 12 5 0 1 -7 -10 -16 -19 -15 -19 -15 2 -9 21 5
46 -13 43 -31 -4 -23 2 -35 14 -28 9 6 9 4 -1 -8 -9 -11 -10 -18 -2 -23 5 -3
10 -2 10 4 0 11 25 9 37 -3 4 -4 3 -7 -2 -6 -20 4 -35 0 -35 -11 0 -5 5 -7 10
-4 6 3 10 1 10 -4 0 -18 -19 -12 -30 9 -9 17 -14 18 -31 9 -12 -6 -18 -13 -15
-16 3 -3 12 0 21 7 9 8 15 8 15 2 0 -6 -4 -14 -10 -17 -6 -4 -4 -15 6 -30 10
-15 12 -25 5 -30 -6 -3 -11 -2 -11 2 0 5 -7 18 -15 29 -14 17 -14 15 0 -14 14
-28 18 -31 37 -21 12 7 18 7 14 1 -3 -6 -3 -12 1 -15 5 -2 3 -3 -2 -1 -17 3
-48 -23 -36 -31 6 -3 11 -1 11 6 0 7 3 9 7 5 10 -9 11 -46 2 -46 -5 0 -13 -10
-20 -21 -6 -13 -7 -19 -1 -15 10 6 54 -47 58 -69 1 -5 5 -19 8 -30 5 -15 4
-15 -5 3 -7 12 -16 22 -21 22 -11 0 -6 -33 6 -42 5 -3 -2 -5 -16 -5 -16 1 -24
7 -21 14 3 7 10 10 16 6 6 -3 7 -1 3 6 -4 6 -12 9 -17 6 -11 -7 -12 5 -1 23 5
7 17 10 28 7 19 -6 19 -6 0 9 -11 9 -24 22 -29 28 -5 8 -6 4 -2 -11 5 -16 4
-21 -4 -17 -7 5 -8 1 -4 -10 5 -12 3 -15 -6 -9 -10 6 -11 3 -2 -13 6 -11 8
-28 4 -38 -5 -13 -3 -16 10 -11 9 3 19 2 22 -3 4 -6 14 -6 28 1 21 10 21 9 3
-5 -15 -12 -23 -13 -33 -4 -10 8 -13 6 -10 -10 4 -24 17 -42 17 -23 0 7 5 9
11 6 6 -5 4 -12 -8 -21 -17 -14 -16 -15 7 -9 24 5 24 5 -3 -10 -27 -15 -28
-18 -13 -34 9 -10 16 -23 16 -29 0 -7 7 -9 18 -5 9 4 2 -6 -16 -21 -17 -15
-32 -33 -32 -39 0 -8 4 -7 12 1 7 7 17 12 22 12 6 0 4 -5 -4 -10 -12 -7 -12
-12 -2 -22 6 -6 12 -17 12 -23 0 -5 -5 -2 -11 8 -5 9 -15 17 -21 17 -6 0 -5
-7 3 -17 8 -9 9 -14 2 -10 -6 4 -13 2 -15 -4 -3 -8 -10 -6 -21 5 -9 10 -17 13
-17 7 0 -6 10 -16 22 -22 21 -11 21 -12 2 -27 -14 -11 -15 -13 -2 -9 24 8 30
-4 10 -20 -16 -12 -16 -13 1 -7 19 7 24 -12 5 -19 -10 -4 -10 -6 0 -6 7 -1 15
6 18 14 8 19 21 19 21 0 0 -8 -9 -17 -18 -20 -15 -5 -16 -9 -6 -20 6 -7 16
-10 21 -8 5 3 6 0 4 -8 -3 -8 -12 -13 -22 -11 -9 2 -16 -1 -16 -7 0 -10 25 -9
36 2 13 13 27 7 15 -6 -6 -8 -7 -18 -3 -22 4 -5 0 -6 -9 -3 -9 4 -16 1 -16 -7
0 -8 7 -11 15 -7 10 3 13 1 8 -6 -4 -7 -15 -12 -24 -13 -11 0 -12 -2 -4 -6 7
-3 19 1 27 7 10 8 15 9 15 2 0 -6 -4 -13 -10 -17 -15 -9 0 -35 22 -35 10 0 17
-4 14 -9 -3 -4 2 -17 10 -27 9 -10 13 -14 10 -8 -7 14 18 26 39 18 11 -5 13
-2 9 10 -3 9 -11 13 -17 9 -6 -4 -7 -1 -2 7 5 8 3 11 -6 8 -8 -3 -13 -11 -11
-17 1 -6 -5 -11 -14 -11 -14 0 -15 2 -3 17 12 14 12 16 0 8 -10 -5 -12 -4 -7
3 4 7 2 12 -4 12 -7 0 -9 7 -6 15 3 9 -1 18 -10 22 -13 5 -13 7 -2 14 10 7 10
9 -2 9 -13 0 -13 1 0 10 8 5 10 10 4 10 -6 0 -11 7 -11 15 0 8 4 15 9 15 4 0
8 -6 8 -14 0 -8 6 -16 13 -19 9 -3 8 -8 -3 -22 -14 -17 -13 -18 2 -13 9 4 24
0 35 -7 10 -8 13 -15 8 -15 -6 0 -16 5 -22 11 -7 7 -12 6 -17 -6 -3 -9 -2 -13
3 -10 5 3 12 1 16 -5 4 -6 10 -8 14 -6 4 3 14 -6 21 -19 7 -14 17 -25 22 -25
5 0 6 5 3 10 -3 6 -2 10 4 10 5 0 13 -4 16 -10 3 -5 1 -10 -5 -10 -6 0 -8 -5
-5 -10 5 -8 11 -7 21 1 10 8 14 8 14 0 0 -6 -4 -11 -10 -11 -5 0 -10 -4 -10
-10 0 -5 8 -7 18 -4 14 5 14 4 2 -4 -8 -6 -17 -9 -21 -6 -4 2 -10 0 -14 -6 -3
-5 -1 -10 4 -10 6 0 11 -9 11 -20 0 -11 -7 -20 -15 -20 -8 0 -15 -5 -15 -11 0
-5 -5 -7 -12 -3 -8 5 -4 13 11 25 12 10 17 20 12 23 -5 4 -12 0 -15 -6 -3 -7
-3 -1 -1 14 3 21 0 26 -13 21 -13 -4 -14 -3 -4 5 11 7 11 10 -2 15 -10 4 -20
-2 -27 -15 l-12 -22 -17 22 c-15 17 -19 19 -24 7 -3 -8 0 -14 7 -12 7 1 11 -7
9 -18 -2 -16 -1 -17 7 -5 6 8 11 11 11 6 0 -6 5 -5 12 2 17 17 33 15 18 -3 -7
-8 -9 -15 -4 -15 5 0 0 -7 -10 -15 -11 -8 -16 -15 -10 -15 17 0 35 17 32 30
-2 7 2 14 8 17 9 3 12 -35 4 -44 -2 -2 -3 -9 -4 -15 -1 -7 -8 -12 -15 -10 -7
1 -10 -2 -6 -8 3 -6 12 -7 18 -3 7 4 32 8 56 8 24 0 46 5 48 11 2 6 -3 11 -12
11 -8 0 -15 -4 -15 -9 0 -5 -5 -6 -11 -2 -6 3 -7 9 -2 13 5 3 9 15 8 26 0 14
7 20 22 21 12 1 20 -2 17 -7 -2 -4 -11 -6 -19 -3 -8 4 -13 0 -11 -10 3 -19 16
-34 16 -17 0 7 5 9 10 6 13 -8 13 -45 0 -45 -5 0 -7 -7 -4 -15 4 -8 1 -15 -5
-15 -6 0 -10 6 -9 13 2 6 -4 10 -12 8 -8 -2 -25 -4 -37 -4 -13 1 -23 -3 -23
-9 0 -5 4 -7 9 -3 5 3 13 0 17 -6 4 -8 9 -7 15 2 4 7 11 10 15 6 4 -4 2 -13
-4 -19 -19 -19 -14 -30 11 -22 21 6 21 6 6 -12 -9 -11 -19 -26 -23 -34 -5 -9
-2 -8 7 3 17 21 24 22 24 2 0 -8 -9 -17 -19 -21 -19 -6 -25 -24 -8 -24 6 0 10
5 10 10 0 6 5 10 10 10 16 0 12 -14 -10 -38 -12 -12 -16 -22 -11 -22 6 0 14 7
19 16 6 11 12 13 16 6 3 -6 -4 -18 -16 -26 -18 -13 -19 -16 -5 -16 17 0 22
-11 10 -24 -10 -10 -13 -37 -3 -31 4 3 11 -3 15 -13 6 -15 8 -14 20 8 10 18
14 20 15 8 0 -9 3 -24 7 -34 4 -12 3 -15 -6 -10 -6 4 -18 2 -26 -4 -12 -10
-15 -9 -15 3 0 9 -4 18 -9 21 -12 8 -9 -27 4 -36 5 -4 15 -2 22 4 8 6 17 8 20
4 4 -4 1 -11 -6 -15 -8 -6 -9 -11 -3 -15 6 -3 14 3 17 15 4 11 10 18 13 14 12
-11 8 -29 -8 -43 -13 -12 -13 -13 2 -8 17 5 33 -19 23 -35 -4 -5 1 -6 10 -3
12 5 13 10 6 17 -20 20 -11 30 10 11 19 -17 19 -19 3 -31 -10 -7 -14 -13 -10
-13 5 0 0 -8 -11 -17 -10 -10 -12 -14 -3 -8 8 5 21 16 28 24 11 13 12 13 12 0
0 -8 -5 -20 -11 -26 -8 -8 -6 -18 5 -35 9 -14 13 -28 9 -31 -3 -4 -1 -7 5 -7
6 0 16 -9 22 -20 9 -16 8 -20 -5 -20 -8 0 -14 5 -13 11 2 6 -4 14 -12 16 -10
3 -11 2 -4 -4 6 -4 10 -15 9 -24 -2 -11 3 -15 14 -12 9 2 22 -5 29 -17 7 -11
8 -20 3 -20 -6 0 -13 5 -16 10 -8 13 -25 13 -25 0 0 -6 6 -9 13 -8 13 3 14
-14 2 -47 -5 -16 -3 -15 7 3 8 12 17 20 21 16 4 -4 1 -14 -6 -22 -10 -13 -9
-14 2 -7 11 6 13 4 8 -7 -3 -9 0 -21 6 -27 8 -8 8 -11 0 -11 -6 0 -14 -7 -17
-16 -6 -15 -4 -15 11 -3 15 12 16 12 9 -6 -4 -11 -4 -16 0 -13 3 4 15 -3 25
-15 16 -19 18 -19 12 -3 -4 13 -3 17 5 12 6 -3 14 -1 18 5 5 8 3 9 -6 4 -9 -6
-11 -4 -5 6 7 11 6 12 -7 2 -15 -13 -28 -8 -28 9 0 5 4 7 9 3 5 -3 13 -1 16 5
4 6 14 1 25 -12 11 -13 19 -18 20 -12 0 5 -5 15 -12 22 -9 9 -9 15 1 25 10 10
15 9 24 -4 7 -9 19 -14 27 -12 13 4 13 3 0 -6 -11 -8 -18 -6 -27 6 -7 9 -16
14 -20 10 -3 -4 2 -16 12 -27 13 -14 14 -20 5 -20 -9 0 -5 -10 11 -27 13 -15
16 -21 7 -14 -22 16 -23 3 -3 -23 11 -14 15 -16 15 -5 1 8 7 3 15 -11 8 -15
10 -29 4 -34 -19 -20 -8 -28 13 -10 l22 19 -22 -29 c-18 -24 -20 -32 -10 -44
10 -13 10 -14 1 -8 -8 4 -13 2 -13 -4 0 -6 -5 -8 -11 -4 -8 5 -8 9 1 14 9 5 9
9 1 14 -6 4 -11 2 -11 -5 0 -10 -3 -10 -12 -1 -15 15 -28 16 -28 2 0 -6 3 -9
8 -8 14 5 54 -39 42 -47 -8 -5 -8 -10 0 -20 6 -7 8 -21 4 -31 -3 -12 0 -10 9
5 8 14 17 19 21 13 3 -6 2 -13 -4 -17 -6 -4 -8 -11 -5 -16 4 -5 0 -9 -7 -9 -7
0 -5 -5 6 -11 23 -14 41 8 24 28 -6 7 -7 13 -3 13 4 0 2 6 -4 14 -9 11 -9 15
1 19 11 4 10 6 0 6 -7 1 -10 6 -6 13 4 6 3 8 -4 4 -6 -3 -13 -2 -17 4 -14 23
24 8 40 -16 9 -15 12 -24 7 -20 -6 4 -10 -2 -9 -14 1 -10 8 -22 15 -25 10 -3
12 0 8 10 -3 8 -1 15 4 15 16 0 11 -30 -5 -36 -21 -9 -19 -19 5 -21 11 -1 18
2 15 8 -4 5 -1 9 4 9 13 0 14 -10 1 -30 -11 -17 7 -43 23 -33 6 3 7 1 3 -5 -6
-11 6 -16 27 -13 4 0 7 -4 7 -10 0 -6 -6 -9 -13 -6 -8 3 -13 -3 -14 -17 -2
-56 -8 -76 -20 -72 -17 7 -28 -13 -14 -27 9 -9 11 -8 6 5 -5 13 -2 15 14 11
11 -3 18 -9 15 -14 -3 -5 0 -9 6 -9 6 0 8 -4 5 -10 -10 -16 1 -11 16 7 8 9 9
14 3 10 -7 -4 -14 0 -17 8 -4 9 -1 12 9 8 7 -3 14 0 14 6 0 6 -3 10 -7 10 -27
-4 -35 1 -23 16 7 8 9 15 5 15 -4 0 -2 6 4 13 6 8 8 18 4 23 -4 5 -1 3 7 -4
13 -11 13 -14 0 -22 -10 -7 -11 -10 -2 -10 6 0 12 -7 12 -15 0 -8 11 -22 25
-31 14 -9 25 -21 25 -28 0 -6 -4 -6 -9 3 -6 9 -11 10 -15 2 -4 -6 -11 -9 -16
-6 -10 6 -22 -23 -14 -36 3 -5 -2 -9 -11 -9 -10 0 -13 5 -9 12 4 7 3 8 -5 4
-14 -9 -5 -26 15 -26 16 0 20 -19 4 -21 -5 -1 -14 -2 -20 -3 -5 0 -15 -7 -22
-15 -11 -12 -10 -12 2 -5 24 14 41 13 47 -2 3 -8 10 -14 16 -14 7 0 7 4 -1 12
-7 7 -12 17 -12 23 1 5 9 0 19 -13 14 -15 21 -18 25 -10 2 7 3 2 1 -12 -2 -14
-4 -29 -4 -33 -1 -5 -6 -5 -12 -1 -8 4 -7 9 2 16 11 8 11 9 -1 5 -8 -2 -23 0
-32 5 -11 5 -18 5 -18 0 0 -6 10 -12 22 -15 21 -6 21 -7 3 -34 -10 -15 -12
-22 -4 -16 10 10 16 9 31 -4 17 -15 17 -17 0 -29 -16 -13 -16 -15 3 -29 11 -9
19 -18 18 -20 -8 -13 -1 -24 10 -19 8 3 14 -2 14 -11 0 -8 -4 -15 -9 -15 -4 0
-8 -5 -8 -11 0 -5 4 -7 10 -4 9 6 14 -8 11 -27 -1 -8 15 -12 32 -9 4 0 7 -6 7
-14 0 -8 -4 -15 -10 -15 -5 0 -10 -4 -10 -10 0 -18 18 -11 25 10 6 20 24 23
38 5 5 -6 7 -4 4 5 -2 8 -10 14 -16 13 -6 -2 -11 2 -11 8 0 5 -4 8 -8 5 -5 -3
-9 1 -9 9 0 11 4 12 13 4 7 -6 14 -6 18 -1 7 12 -22 25 -35 16 -5 -3 -7 -9 -4
-14 3 -5 1 -11 -4 -14 -5 -3 -11 1 -15 9 -3 8 2 18 11 23 11 6 12 11 4 16 -6
4 -11 2 -11 -3 0 -6 -5 -11 -11 -11 -6 0 -7 5 -2 13 12 19 12 38 1 31 -6 -4
-8 -2 -5 4 5 6 -1 8 -15 5 -13 -3 -20 -2 -15 2 12 13 47 16 47 4 0 -6 9 -8 23
-4 20 5 20 5 -3 -9 -22 -14 -21 -21 3 -17 5 1 6 -3 2 -9 -3 -5 -1 -10 4 -10 6
0 11 8 11 18 1 10 6 4 15 -15 14 -32 64 -71 52 -41 -3 8 -2 21 3 27 5 9 8 4 8
-13 -1 -14 -8 -31 -16 -38 -9 -7 -13 -8 -10 -3 4 6 -2 16 -13 23 -20 13 -26 3
-9 -14 6 -6 8 -18 4 -28 -5 -14 -9 -14 -22 -4 -12 10 -14 10 -8 1 4 -8 2 -13
-5 -13 -7 0 -5 -8 6 -20 17 -19 17 -21 -1 -42 -12 -14 -13 -18 -3 -10 21 15
32 4 16 -17 -10 -14 -10 -14 5 -3 9 8 23 10 29 6 9 -5 7 -10 -7 -16 -13 -6
-11 -7 10 -3 27 6 28 5 15 -11 -11 -13 -11 -18 -1 -21 6 -3 9 -9 6 -14 -4 -6
-10 -6 -18 0 -8 6 -17 6 -26 0 -12 -8 -11 -9 5 -7 14 2 20 -3 20 -16 0 -11 6
-21 13 -24 6 -2 12 -8 12 -13 0 -6 -5 -7 -12 -3 -7 5 -8 3 -3 -6 6 -10 2 -12
-15 -7 -16 4 -20 3 -12 -5 6 -6 18 -7 29 -3 10 5 21 9 25 9 16 2 19 16 4 22
-9 3 -13 10 -10 15 3 5 -2 6 -11 3 -11 -5 -14 -2 -9 10 3 8 10 14 16 13 6 -1
12 6 13 16 2 9 -1 15 -5 12 -5 -3 -7 4 -5 15 2 12 -2 23 -11 27 -10 4 -12 9
-4 18 7 9 6 16 -4 24 -10 8 -16 9 -21 1 -3 -5 -11 -10 -18 -10 -25 0 15 25 43
26 30 2 42 -18 20 -31 -6 -3 -10 -11 -10 -17 0 -6 9 -3 20 7 11 10 20 13 20 7
0 -6 -5 -12 -12 -14 -14 -5 -20 -38 -6 -38 6 0 7 -7 4 -16 -4 -11 -2 -15 8
-11 10 4 13 1 9 -8 -3 -8 -9 -12 -14 -9 -5 3 -9 -5 -9 -18 0 -17 3 -19 9 -9 7
11 9 11 13 0 6 -18 -21 -61 -33 -53 -5 3 -9 0 -9 -5 0 -16 11 -14 32 6 14 12
21 14 30 5 8 -8 14 -7 23 5 10 13 14 13 20 3 5 -8 4 -11 -2 -7 -6 4 -13 0 -17
-8 -3 -8 -1 -15 4 -15 6 0 10 -5 10 -12 0 -6 -9 -3 -20 7 -11 10 -20 13 -20 7
0 -6 5 -14 10 -17 6 -4 8 -11 5 -16 -4 -5 1 -9 9 -9 8 0 20 8 25 18 6 9 11 12
11 7 0 -6 -5 -16 -12 -23 -8 -8 -8 -15 3 -28 9 -12 10 -15 2 -10 -8 4 -13 1
-13 -9 0 -9 6 -15 12 -12 7 2 12 16 11 31 -1 14 1 26 5 26 15 0 11 -42 -6 -68
-11 -18 -25 -27 -40 -26 -23 1 -23 1 -4 -20 10 -11 25 -36 32 -53 12 -32 30
-45 30 -22 0 5 5 7 11 4 7 -5 2 -17 -13 -33 -16 -19 -17 -22 -4 -12 18 14 19
13 13 -3 -5 -12 -3 -16 5 -11 7 5 9 2 5 -9 -4 -11 -2 -14 9 -10 11 4 12 9 5
16 -6 6 -11 16 -11 22 0 5 5 3 10 -5 6 -10 10 -11 10 -2 0 6 5 12 11 12 8 0 8
-4 0 -14 -7 -9 -8 -17 -3 -20 6 -3 12 1 16 9 3 8 11 15 18 15 9 0 8 -3 -2 -10
-13 -8 -8 -14 11 -12 3 1 6 -6 6 -13 0 -11 -4 -12 -14 -4 -9 8 -17 8 -26 0 -8
-6 -17 -8 -21 -4 -4 4 -4 -1 0 -12 6 -16 5 -18 -7 -7 -7 6 -18 12 -23 12 -6 0
-2 -7 8 -15 10 -8 23 -12 27 -9 4 2 7 -5 6 -16 -1 -11 -4 -20 -7 -20 -3 0 -15
-7 -26 -16 -10 -8 -13 -12 -6 -9 21 11 62 13 68 4 3 -5 -1 -10 -8 -10 -7 -1
-17 -2 -23 -4 -5 -1 -15 -3 -21 -3 -7 -1 -15 -10 -18 -19 -6 -15 -4 -15 14 2
23 21 39 13 20 -10 -11 -13 -11 -18 0 -28 10 -9 13 -9 17 1 3 6 10 12 16 12 5
0 7 -3 4 -6 -3 -4 -2 -15 3 -25 7 -12 6 -19 -3 -22 -6 -3 -3 -5 8 -5 11 0 34
-3 50 -6 21 -5 26 -4 15 3 -8 5 -18 7 -22 5 -4 -3 -8 -2 -9 3 0 4 -2 16 -4 26
-2 9 1 15 6 11 5 -3 9 -1 9 4 0 5 -9 12 -21 15 -13 4 -18 10 -13 18 4 7 3 10
-3 6 -6 -4 -10 5 -9 21 1 21 -3 27 -19 25 -20 -1 -20 -1 -1 13 12 8 14 14 7
14 -8 0 -11 6 -7 16 4 10 2 13 -7 8 -9 -5 -8 -3 1 7 11 12 14 12 22 -1 5 -8 6
-18 4 -22 -5 -7 11 -12 29 -9 5 1 6 -3 2 -8 -3 -6 -13 -7 -22 -4 -14 5 -13 1
5 -24 17 -23 19 -33 9 -43 -10 -10 -9 -12 5 -7 21 7 33 -20 17 -39 -8 -9 -8
-14 -1 -14 6 0 13 4 17 10 7 11 35 2 35 -12 0 -6 -6 -6 -14 1 -8 7 -17 8 -20
3 -3 -5 5 -14 19 -20 20 -9 24 -8 28 6 4 15 5 15 6 -1 0 -10 -6 -20 -14 -23
-8 -4 -15 -10 -15 -15 0 -6 9 -5 21 2 16 8 24 8 33 -1 8 -8 6 -9 -9 -4 -17 7
-18 6 -7 -8 10 -13 10 -17 0 -21 -7 -2 -9 -8 -5 -13 5 -5 18 2 29 16 l20 25
-16 -28 c-14 -22 -15 -31 -5 -43 9 -11 9 -14 0 -14 -7 0 -9 -5 -6 -10 5 -8 11
-7 21 1 10 8 14 8 14 0 0 -10 -13 -15 -32 -12 -16 2 -7 -15 12 -27 12 -7 26
-9 33 -5 7 4 7 0 -2 -10 -12 -16 -8 -22 12 -18 5 1 5 -4 1 -10 -5 -9 -13 -5
-26 10 -10 13 -18 19 -18 14 0 -5 -8 -10 -17 -10 -15 0 -15 1 -2 10 14 9 14
12 -4 30 -14 14 -16 22 -8 30 6 6 11 16 11 22 0 5 -5 3 -11 -5 -9 -13 -10 -12
-5 3 3 10 0 20 -8 23 -7 3 -13 11 -13 19 0 8 4 12 9 9 4 -3 8 0 8 6 0 6 -11 8
-25 6 -13 -3 -28 0 -31 6 -4 7 -2 8 4 4 7 -4 12 -2 12 3 0 6 -7 11 -15 11 -10
0 -14 -8 -12 -22 4 -23 27 -39 27 -18 0 6 5 8 11 5 7 -5 4 -14 -8 -28 -10 -11
-12 -17 -5 -13 9 5 13 3 11 -5 -3 -28 1 -39 17 -39 8 0 12 -4 9 -10 -3 -5 -2
-10 4 -10 5 0 8 -8 6 -18 -2 -9 -4 -21 -4 -25 -1 -5 -5 -5 -11 -2 -5 3 -10 1
-10 -5 0 -6 8 -9 18 -6 13 4 18 0 19 -14 1 -12 -3 -18 -9 -14 -5 4 -3 -5 6
-18 9 -14 13 -27 10 -31 -4 -4 4 -15 17 -26 13 -11 19 -20 13 -21 -5 0 -15 5
-22 12 -9 9 -12 9 -12 0 0 -7 5 -12 10 -12 6 0 10 -5 10 -11 0 -5 -4 -8 -8 -5
-5 3 -9 -1 -9 -9 0 -8 4 -15 9 -15 4 0 8 5 8 11 0 5 5 7 12 3 6 -4 8 -3 4 4
-3 6 -2 13 4 17 6 4 8 11 5 16 -4 5 -1 9 4 9 6 0 11 4 11 9 0 6 -9 8 -20 6
-13 -3 -18 0 -14 7 5 7 2 8 -7 4 -8 -4 -6 -1 3 7 17 13 16 15 -5 25 -12 6 -16
11 -9 11 7 1 10 6 6 13 -4 7 -3 8 4 4 7 -4 12 -2 12 3 0 6 -5 11 -11 11 -5 0
-7 5 -3 11 4 8 10 5 17 -7 6 -11 15 -23 21 -27 7 -6 4 -7 -6 -3 -10 3 -20 1
-23 -4 -8 -13 17 -18 40 -8 16 7 16 5 -2 -8 -13 -9 -23 -21 -23 -26 0 -7 5 -6
13 1 19 15 28 2 16 -21 -7 -14 -7 -23 2 -34 15 -19 27 -18 32 3 3 10 4 1 2
-19 -2 -26 1 -38 12 -42 12 -5 14 -1 9 21 -5 23 -4 25 5 10 6 -10 8 -25 5 -32
-3 -8 3 -19 12 -24 11 -7 12 -11 4 -11 -7 0 -11 -4 -7 -10 3 -5 12 -7 19 -4 8
3 17 0 21 -6 5 -8 13 -6 28 7 l22 18 -19 -22 c-10 -12 -26 -25 -35 -28 -9 -2
-17 -16 -17 -30 -2 -21 1 -24 12 -14 8 6 11 16 7 22 -3 5 -1 7 5 3 5 -3 12 0
15 6 3 7 4 3 4 -9 -1 -12 -4 -20 -8 -17 -4 2 -10 0 -14 -6 -6 -9 8 -15 29 -11
5 1 4 -4 -3 -12 -13 -16 -11 -37 4 -50 6 -5 3 -7 -7 -3 -10 3 -18 1 -18 -4 0
-5 -7 -16 -16 -25 -15 -14 -14 -15 15 -10 30 5 42 -7 20 -20 -13 -9 23 -36 50
-38 11 -1 19 -6 18 -12 -1 -5 4 -9 10 -8 7 2 13 -2 13 -7 0 -22 2 -25 23 -37
12 -7 16 -12 10 -13 -7 0 -13 -5 -13 -11 0 -5 5 -7 10 -4 6 3 10 1 10 -5 0 -7
-7 -9 -16 -6 -10 4 -13 2 -8 -6 4 -7 3 -8 -4 -4 -9 5 -9 13 -2 27 7 13 7 19 0
20 -25 3 -29 4 -35 11 -4 4 -14 4 -23 1 -13 -4 -14 -3 -3 5 11 8 11 11 0 16
-8 3 -3 3 11 -1 22 -5 23 -4 11 11 -8 9 -20 15 -28 12 -7 -3 -13 0 -13 7 0 8
-3 8 -9 -2 -6 -9 -11 -10 -15 -2 -4 6 -1 11 6 11 8 0 6 5 -5 11 -9 6 -14 15
-11 21 4 6 1 9 -7 6 -8 -3 -21 -2 -29 2 -11 6 -15 2 -17 -18 -1 -22 1 -23 8
-9 8 14 14 15 30 6 17 -9 18 -13 7 -27 -10 -12 -10 -14 0 -8 7 4 12 2 12 -4 0
-7 6 -10 14 -7 8 3 17 -1 20 -9 4 -12 1 -14 -14 -9 -11 4 -20 2 -20 -4 0 -6 3
-10 8 -10 20 3 33 -2 27 -11 -4 -6 -12 -7 -18 -4 -7 4 -4 -1 5 -11 14 -15 20
-16 32 -6 10 8 16 9 21 1 3 -5 1 -10 -4 -10 -8 0 -7 -7 1 -20 7 -10 14 -17 17
-15 6 7 31 -15 31 -27 0 -6 -8 -4 -17 3 -10 7 -7 1 6 -14 14 -15 20 -27 15
-27 -5 0 -15 -9 -21 -20 -11 -16 -10 -18 2 -14 8 4 15 10 15 16 0 5 6 6 13 2
6 -4 9 -4 5 1 -4 4 -2 15 5 23 6 9 7 13 1 9 -6 -3 -11 0 -11 8 0 11 4 12 14 4
7 -7 13 -7 13 -2 0 6 -10 15 -22 21 -15 7 -17 11 -8 11 13 1 13 2 0 11 -9 6
-10 10 -3 10 6 0 15 -4 18 -10 3 -5 11 -10 17 -10 6 0 6 6 -2 15 -7 9 -10 18
-6 22 3 3 6 1 6 -6 0 -7 4 -10 9 -7 10 7 9 -13 -2 -31 -4 -6 -2 -15 3 -18 7
-5 5 -11 -6 -20 -21 -15 -11 -50 12 -41 8 3 12 2 9 -4 -3 -6 -1 -10 5 -10 6 0
8 -5 5 -10 -3 -5 2 -10 12 -11 15 0 14 -2 -4 -11 -13 -6 -23 -14 -23 -18 0 -9
31 -24 43 -21 5 1 6 -3 2 -8 -3 -6 -11 -8 -18 -5 -7 2 -13 -4 -14 -16 -2 -22
6 -20 42 9 20 16 20 16 1 -6 -21 -25 -16 -29 15 -12 14 7 18 16 14 27 -4 12
-3 14 5 6 14 -14 2 -44 -18 -44 -12 0 -13 -3 -4 -12 9 -9 15 -9 24 0 7 7 17
12 22 12 6 0 3 -5 -6 -11 -10 -5 -18 -15 -18 -20 0 -6 5 -7 10 -4 6 3 13 -1
16 -9 3 -9 11 -13 16 -10 6 4 5 -2 -1 -14 -7 -14 -8 -23 -1 -27 5 -3 10 1 10
9 0 9 4 16 8 16 4 0 8 -9 8 -19 0 -11 -4 -17 -8 -15 -4 3 -8 0 -8 -5 0 -6 7
-11 16 -11 11 0 14 -6 8 -22 -6 -20 -5 -21 9 -9 9 7 14 17 11 22 -3 5 0 9 5 9
14 0 14 -13 -1 -28 -7 -7 -8 -12 -4 -12 5 0 3 -7 -4 -15 -11 -13 -10 -14 3
-10 16 7 33 -27 22 -44 -3 -6 2 -14 12 -19 9 -5 18 -17 19 -26 1 -9 -1 -14 -6
-11 -4 3 -13 -2 -19 -9 -8 -10 -9 -16 -1 -21 5 -3 10 -1 10 5 0 14 31 9 31 -5
1 -16 31 -45 41 -39 6 4 5 -4 -2 -16 -11 -20 -10 -21 9 -15 19 6 23 1 20 -22
-1 -11 31 -24 42 -17 8 4 8 0 0 -15 -7 -11 -8 -21 -4 -21 4 0 1 -5 -7 -11 -12
-8 -10 -9 8 -4 13 4 22 2 22 -5 0 -6 -4 -9 -9 -5 -5 3 -13 0 -17 -6 -11 -18
-24 12 -14 32 9 16 4 29 -11 29 -5 0 -6 -8 -3 -17 5 -15 4 -16 -5 -3 -9 12
-11 13 -11 1 0 -8 -3 -12 -6 -8 -3 3 -2 12 2 19 12 19 13 37 3 44 -5 3 -9 -7
-9 -21 0 -16 -4 -24 -11 -19 -8 4 -7 0 1 -15 6 -12 15 -19 19 -16 5 3 11 -1
14 -9 4 -11 -1 -13 -19 -10 -13 2 -24 0 -24 -6 0 -6 4 -9 9 -5 5 3 12 2 15 -3
3 -5 25 -8 50 -7 25 1 43 -1 41 -6 -3 -4 1 -10 7 -13 7 -3 2 -3 -12 0 -14 4
-22 3 -18 -1 4 -4 2 -17 -3 -28 -8 -15 -8 -22 2 -28 8 -5 12 -9 9 -10 -3 0
-15 -2 -28 -5 -22 -4 -22 -3 -6 21 15 23 13 30 -8 26 -5 0 -8 6 -8 14 0 12 4
13 18 6 14 -7 19 -6 19 3 0 19 -41 12 -45 -7 -2 -10 -7 -15 -11 -13 -4 3 -8
-4 -8 -15 -1 -10 3 -19 8 -19 6 0 8 4 4 9 -3 5 -1 12 4 15 14 9 25 -14 13 -26
-16 -16 -3 -41 14 -27 15 12 19 0 7 -16 -5 -6 -4 -7 1 -3 18 15 26 8 14 -11
-7 -11 -16 -18 -20 -15 -4 3 -5 -3 -1 -12 5 -14 8 -12 20 10 15 29 30 34 30
11 0 -8 -4 -15 -8 -15 -5 0 -13 -10 -20 -21 -6 -12 -7 -19 -1 -15 5 3 12 -1
16 -9 3 -8 11 -15 18 -14 10 0 10 2 1 6 -18 7 -16 20 2 20 14 0 19 -10 16 -29
0 -4 6 -5 14 -2 24 10 17 -6 -7 -16 -21 -9 -21 -9 6 -7 17 1 31 -4 34 -12 3
-9 0 -11 -9 -6 -9 6 -9 2 2 -11 9 -10 19 -26 22 -34 4 -12 6 -12 6 2 1 9 -3
19 -9 23 -5 3 -7 12 -3 21 11 28 23 -1 26 -66 1 -19 7 -35 12 -35 21 -1 48
-23 40 -34 -5 -9 -11 -7 -20 6 -7 10 -17 15 -21 10 -4 -4 -2 -7 4 -7 7 0 12
-5 12 -11 0 -5 -5 -7 -12 -3 -7 4 -8 3 -4 -5 4 -6 11 -9 16 -6 5 3 16 -2 25
-11 15 -15 14 -17 -1 -29 -13 -9 -14 -14 -4 -20 8 -5 11 -4 7 2 -8 13 21 29
57 32 10 1 13 11 10 33 -2 22 -1 27 4 15 4 -10 12 -18 17 -18 6 0 21 -17 34
-39 12 -22 18 -40 12 -40 -6 0 -11 7 -11 15 0 8 -4 15 -10 15 -14 0 -13 -13 2
-28 7 -7 8 -12 3 -12 -15 0 -30 14 -31 28 -2 29 -5 33 -14 27 -21 -13 -10 -43
20 -55 17 -7 30 -17 30 -22 0 -5 -4 -6 -10 -3 -5 3 -10 1 -10 -5 0 -7 8 -9 22
-5 18 6 21 5 11 -5 -8 -9 -9 -19 -2 -32 7 -13 6 -18 -2 -18 -7 0 -9 -3 -6 -6
4 -4 13 -2 20 5 11 9 17 8 27 -3 13 -16 5 -40 -11 -30 -5 3 -6 10 -3 16 4 7 2
8 -5 4 -9 -6 -9 -11 0 -22 9 -12 14 -11 32 1 23 16 31 52 11 52 -7 0 -10 -7
-6 -16 5 -14 4 -14 -12 -1 -16 12 -8 28 10 18 3 -2 11 8 18 21 12 21 13 18 14
-35 2 -81 5 -104 14 -105 19 -3 24 -5 36 -12 7 -5 12 -4 12 2 0 10 -12 14 -26
9 -7 -3 -27 43 -21 48 3 3 30 -22 87 -81 14 -14 31 -23 37 -20 14 5 18 -10 6
-18 -5 -2 -3 -2 4 -1 7 2 15 -1 19 -7 4 -6 12 -5 22 3 13 11 15 10 9 -4 -8
-22 12 -35 24 -17 8 11 12 10 24 -5 8 -11 15 -15 15 -10 0 6 -6 16 -12 23 -11
11 -10 13 5 8 10 -4 27 -2 38 3 27 15 24 -4 -3 -24 -15 -10 -17 -14 -5 -10 9
4 17 1 17 -5 0 -6 5 -11 11 -11 8 0 9 4 0 13 -6 8 -8 17 -4 20 11 11 23 8 21
-5 -2 -7 4 -11 12 -9 8 2 21 4 28 4 6 0 12 4 12 9 0 5 5 6 10 3 8 -5 7 -11 -1
-21 -6 -7 -15 -12 -19 -9 -5 3 -12 0 -16 -7 -4 -7 -4 -10 1 -6 4 4 15 2 23 -5
11 -8 14 -8 9 0 -4 6 -3 14 3 18 9 6 14 -8 11 -28 -1 -5 3 -6 8 -2 6 3 8 11 5
19 -3 7 2 13 11 13 8 0 15 -4 15 -8 0 -5 7 -5 17 -2 11 4 14 3 9 -5 -4 -7 -3
-12 3 -12 5 0 9 9 8 20 -1 13 -6 19 -15 15 -20 -8 -35 4 -23 19 6 7 6 17 1 26
-6 8 -10 12 -11 8 -1 -5 -3 -12 -4 -18 -1 -5 -3 -15 -4 -21 0 -5 -6 -7 -12 -3
-8 4 -7 9 2 15 9 6 1 7 -21 4 -27 -4 -32 -3 -20 6 13 9 13 10 0 6 -8 -2 -14
-10 -12 -16 3 -14 -15 -15 -23 -1 -3 6 0 13 8 16 7 2 14 11 14 19 0 17 -24 28
-32 15 -4 -6 -1 -10 4 -10 6 0 11 -5 11 -11 0 -8 -4 -9 -13 0 -8 6 -18 7 -23
3 -5 -4 -1 3 10 15 11 13 24 19 34 16 9 -4 13 -2 9 4 -4 6 1 19 11 30 9 10 13
13 8 6 -15 -23 -15 -71 1 -77 11 -5 13 -1 8 15 -5 15 -4 19 4 15 6 -4 11 -14
11 -22 0 -16 16 -19 25 -4 3 5 12 7 20 4 8 -4 13 -9 11 -13 -3 -4 0 -13 5 -21
8 -13 10 -13 20 0 9 12 10 12 5 -4 -5 -14 -2 -17 9 -12 9 3 14 2 11 -3 -3 -5
1 -12 10 -15 8 -3 12 -10 9 -16 -3 -5 -2 -10 3 -10 5 0 10 11 10 25 0 13 -4
22 -9 19 -5 -3 -9 0 -9 5 0 16 15 13 30 -4 6 -8 9 -19 5 -26 -11 -18 15 -28
42 -16 12 5 23 13 23 17 0 4 7 7 15 7 10 0 13 -8 11 -24 -3 -12 -1 -25 3 -27
4 -3 8 5 9 17 4 64 19 98 37 90 10 -3 13 1 10 15 -2 12 3 26 11 32 7 7 11 16
8 21 -3 5 0 9 5 9 16 0 13 -16 -4 -30 -26 -22 -8 -23 20 -2 15 12 21 23 15 27
-5 3 -10 12 -9 18 0 7 3 6 6 -2 4 -10 12 -4 25 20 11 21 16 25 13 11 -4 -15
-2 -22 5 -20 7 2 15 -4 17 -12 4 -13 3 -13 -7 0 -10 13 -11 13 -7 -2 4 -12 1
-16 -13 -13 -12 2 -17 -2 -16 -13 2 -9 -4 -23 -13 -30 -9 -8 -10 -10 -2 -6 9
5 12 3 7 -5 -4 -6 -12 -8 -18 -5 -6 4 -8 3 -5 -2 3 -6 2 -16 -2 -23 -6 -9 -11
-10 -15 -2 -4 6 -2 11 4 11 6 0 8 5 5 10 -11 17 -24 11 -20 -10 2 -11 0 -22
-6 -25 -5 -4 -9 -1 -9 4 0 6 -5 11 -11 11 -5 0 -7 -5 -3 -12 5 -7 2 -8 -7 -3
-11 6 -11 5 -2 -5 8 -8 9 -19 3 -30 -6 -12 -5 -17 5 -17 7 0 11 7 7 15 -4 11
-1 13 8 7 8 -5 11 -4 7 2 -4 6 0 16 7 22 11 10 17 8 26 -6 8 -12 10 -13 7 -3
-5 17 19 57 31 53 4 -2 7 4 7 11 0 19 41 57 50 48 4 -4 0 8 -10 27 -18 36 -8
55 22 44 12 -5 12 -7 2 -14 -7 -4 -17 -5 -23 -2 -5 3 -6 1 -2 -6 4 -6 12 -9
17 -5 5 3 16 0 24 -6 11 -9 15 -9 15 -1 0 6 -5 11 -11 11 -5 0 -7 5 -3 12 5 7
11 5 21 -7 7 -11 13 -14 13 -8 0 7 -4 14 -9 17 -11 7 -9 25 3 45 6 9 5 12 -5
9 -8 -3 -13 -12 -13 -21 1 -9 -3 -14 -9 -10 -6 4 -7 1 -2 -8 8 -12 6 -12 -8 0
-9 7 -17 19 -17 25 0 6 5 4 10 -4 8 -13 10 -12 10 3 0 9 5 17 10 17 6 0 21 10
34 22 42 43 53 49 53 33 0 -8 -5 -11 -10 -8 -6 4 -7 1 -2 -7 6 -9 4 -11 -6 -5
-11 7 -11 5 1 -10 8 -11 10 -16 3 -11 -9 5 -11 2 -6 -10 5 -14 3 -16 -11 -11
-11 5 -15 3 -10 -5 5 -7 3 -8 -6 -3 -9 6 -11 4 -5 -5 6 -9 4 -11 -4 -5 -10 6
-11 3 -2 -14 14 -25 23 -28 14 -4 -5 12 -3 14 7 8 7 -5 11 -4 8 1 -2 5 6 19
19 31 13 12 23 20 23 16 0 -3 6 0 14 6 8 7 13 21 11 32 -3 13 2 19 13 19 16 1
16 1 0 11 -10 5 -18 14 -18 19 0 16 24 6 37 -15 15 -25 17 -11 2 16 -7 14 -7
24 0 33 6 7 8 16 4 19 -3 4 -1 7 5 7 7 0 12 -6 12 -12 0 -9 3 -8 10 2 5 9 5
19 -2 27 -9 11 -13 10 -23 -4 -7 -10 -11 -21 -9 -25 3 -4 -2 -5 -12 -1 -13 5
-15 2 -9 -18 4 -16 3 -20 -3 -11 -5 8 -12 13 -16 12 -4 -1 -12 1 -19 3 -9 4
-9 6 1 6 7 1 10 5 7 11 -3 5 0 7 7 5 8 -3 22 1 33 9 19 14 18 15 -10 10 -28
-5 -29 -4 -11 9 11 8 32 12 49 11 25 -3 27 -2 17 10 -6 8 -17 14 -23 12 -7 -1
-9 -1 -4 1 4 3 5 9 1 14 -8 14 3 11 20 -7 9 -8 16 -11 16 -5 0 6 7 11 15 11
20 0 19 9 -2 34 -17 20 -17 20 1 6 18 -14 19 -13 13 2 -4 12 -2 15 9 11 10 -4
12 0 8 11 -6 14 5 21 29 17 4 0 7 3 7 9 0 5 7 7 15 4 9 -4 15 0 15 9 0 24 -18
30 -29 10 -6 -10 -11 -14 -11 -9 0 5 -6 5 -13 0 -7 -5 -6 -2 3 6 19 20 24 40
8 40 -6 0 -9 3 -6 6 4 3 17 -1 30 -10 16 -10 28 -12 38 -6 11 7 11 10 2 10 -7
0 -10 5 -7 10 4 6 11 8 16 5 20 -13 28 7 13 31 -16 23 -16 24 9 24 14 0 29 -5
32 -10 4 -6 11 -8 16 -4 7 4 5 12 -4 22 -7 10 -14 28 -15 42 -1 18 1 21 8 10
5 -8 7 -17 4 -21 -8 -13 21 -28 36 -19 10 6 11 10 3 10 -14 0 -48 59 -39 68 3
3 6 1 6 -5 0 -5 7 -10 15 -10 18 0 20 14 3 20 -7 2 0 4 16 4 19 0 24 -2 15 -8
-7 -4 -10 -11 -5 -16 4 -4 12 0 17 10 6 10 15 14 22 10 9 -5 9 -3 0 8 -10 12
-8 20 6 42 10 15 21 24 25 20 4 -4 4 0 1 9 -5 12 -2 16 12 14 10 -2 12 -1 6 1
-23 8 -14 25 10 17 26 -8 22 -2 -12 16 -19 10 -22 9 -16 -1 5 -8 4 -10 -3 -5
-7 4 -10 2 -9 -6 2 -7 2 -10 0 -5 -3 4 -8 5 -12 3 -4 -3 -7 11 -8 31 0 21 2
30 7 23 5 -7 6 -20 3 -29 -5 -12 -1 -11 14 4 19 18 22 42 4 31 -4 -3 -8 1 -8
8 0 11 4 12 19 3 10 -7 16 -17 14 -24 -3 -6 7 -19 22 -29 26 -17 27 -17 11 2
-16 19 -23 57 -8 49 4 -3 10 2 13 10 3 10 1 15 -7 13 -6 -2 -12 2 -12 7 0 6 4
9 10 8 13 -3 47 51 38 60 -8 9 46 59 57 52 5 -3 7 7 4 22 -4 23 -3 26 7 15 7
-6 17 -12 22 -12 5 0 -1 9 -14 20 -26 21 -20 26 11 10 13 -7 21 -7 26 2 4 6 3
8 -3 5 -6 -4 -14 0 -17 9 -3 8 -10 13 -15 10 -5 -3 -16 5 -25 19 -10 15 -12
26 -6 30 6 4 9 1 8 -7 -3 -15 34 -18 71 -5 15 5 29 3 39 -5 13 -11 14 -11 7 2
-5 8 -10 21 -11 28 -4 23 -9 23 -33 1 -18 -17 -25 -19 -34 -9 -8 9 -8 11 -1 7
6 -4 23 4 38 18 14 13 26 20 26 16 0 -5 10 -7 23 -7 12 1 30 -2 41 -7 12 -6
16 -6 12 1 -3 6 0 13 6 16 7 3 2 3 -12 0 -24 -5 -24 -4 -6 10 11 9 14 16 8 16
-7 0 -12 7 -12 16 0 8 -4 13 -9 9 -6 -3 -8 -14 -6 -25 3 -13 0 -18 -7 -14 -7
5 -8 2 -4 -7 4 -8 1 -6 -7 3 -8 10 -18 14 -22 10 -5 -4 -5 -2 -1 5 4 7 14 9
24 6 15 -6 15 -5 3 11 -8 9 -10 16 -5 15 5 -1 12 0 17 1 4 1 13 3 20 4 6 1 11
7 9 14 -2 11 11 16 31 13 5 -1 6 3 2 9 -3 6 -11 7 -17 4 -6 -4 -17 1 -23 10
-11 15 -13 15 -19 1 -4 -11 -2 -14 6 -9 7 5 8 3 3 -6 -5 -8 -4 -11 2 -7 5 3
10 0 10 -8 0 -11 -5 -10 -24 2 -17 11 -20 18 -12 23 6 5 8 13 4 20 -5 8 -4 11
3 6 6 -3 13 -2 17 4 3 5 1 10 -5 10 -7 0 -9 12 -6 31 3 23 1 29 -9 25 -16 -6
-14 16 3 36 6 8 8 19 4 23 -4 5 -1 5 6 1 7 -5 12 -1 13 11 0 11 3 13 6 5 3 -7
0 -19 -6 -26 -8 -10 -8 -16 2 -25 8 -6 17 -7 22 -3 4 4 5 0 3 -8 -3 -8 -10
-14 -15 -13 -16 3 -11 -21 8 -39 17 -16 18 -16 16 2 -1 10 -5 16 -9 14 -12 -7
-10 10 2 22 6 6 8 19 4 28 -5 14 -9 15 -16 4 -7 -9 -8 -7 -3 7 4 11 8 27 9 35
1 8 7 24 13 35 10 16 14 17 21 7 5 -8 13 -13 18 -12 13 2 26 29 19 39 -3 5 0
13 7 17 7 4 10 4 6 -1 -4 -4 0 -14 10 -22 9 -8 11 -12 5 -8 -9 4 -11 0 -7 -12
4 -13 3 -15 -4 -5 -8 11 -10 11 -15 -1 -6 -15 0 -27 14 -27 4 0 11 9 14 20 4
11 11 17 17 14 6 -4 8 -2 4 4 -3 6 -2 13 4 17 6 4 7 11 4 17 -4 7 -2 8 4 4 6
-4 9 -13 5 -21 -3 -8 1 -15 8 -15 7 0 9 3 6 6 -3 4 -2 14 3 23 7 14 4 17 -18
15 -37 -2 -39 -3 -23 -13 9 -6 10 -11 2 -15 -6 -4 -12 -2 -12 3 -1 6 -2 17 -3
24 -1 6 5 21 14 32 27 32 31 53 12 58 -16 4 -15 5 1 6 9 0 17 6 17 12 0 5 -4
7 -10 4 -6 -3 -7 1 -4 9 3 9 9 16 13 16 4 0 8 7 8 15 0 11 -6 13 -20 9 -19 -6
-19 -5 2 17 11 12 21 26 21 31 0 4 5 8 11 8 8 0 9 -4 0 -13 -6 -8 -7 -18 -3
-22 4 -5 1 -5 -7 0 -10 5 -12 4 -7 -4 4 -6 12 -9 17 -6 5 4 9 1 9 -4 0 -6 -3
-11 -8 -11 -4 0 -8 -14 -8 -31 -2 -35 15 -26 21 12 2 13 6 33 8 44 3 11 -1 29
-9 40 -8 10 -14 15 -14 11 0 -5 -8 -2 -17 5 -15 12 -16 12 -10 -4 4 -11 1 -28
-7 -39 l-15 -21 2 21 c0 11 5 18 9 16 11 -7 10 3 -2 26 -10 19 2 22 26 7 19
-11 25 5 6 20 -12 10 -8 10 15 -2 18 -8 37 -23 42 -32 6 -10 11 -13 11 -8 1 6
4 21 6 34 6 36 -35 59 -66 37 -13 -9 -13 -9 -2 6 13 17 28 18 50 4 15 -9 14
-9 31 19 l11 20 -2 -20 c-2 -11 -7 -23 -13 -27 -6 -5 -5 -8 2 -8 8 0 10 -7 6
-17 -6 -16 -5 -17 9 -2 10 9 14 28 13 51 -3 32 -1 35 21 35 13 0 24 -3 24 -8
0 -4 -9 -6 -21 -4 -17 4 -19 2 -9 -10 10 -12 10 -15 -1 -15 -9 0 -7 -4 5 -11
15 -9 22 -7 40 12 20 22 20 22 0 6 -28 -23 -41 -22 -20 2 10 11 15 25 11 30
-8 14 8 14 21 1 15 -15 16 31 1 49 -10 12 -9 14 5 8 10 -3 22 1 30 11 12 15
11 16 -4 4 -10 -8 -19 -9 -22 -3 -3 5 0 12 6 14 10 4 10 6 1 6 -14 1 -6 31 11
44 6 5 2 6 -9 2 -11 -4 -25 -8 -31 -8 -6 0 -11 -6 -11 -14 0 -9 4 -10 14 -2 9
8 13 8 13 1 0 -13 -39 -36 -48 -28 -3 3 1 6 9 6 11 0 11 2 -1 10 -8 5 -10 10
-5 10 6 0 11 9 12 20 1 11 -2 18 -7 15 -14 -9 -23 16 -11 28 9 9 10 7 5 -8 -7
-18 -6 -19 9 -6 17 13 17 15 -1 35 -29 32 -33 44 -20 52 7 4 10 4 6 -1 -13
-14 11 -43 30 -38 12 3 19 -1 19 -11 0 -8 -4 -13 -9 -10 -4 3 -5 -2 -2 -10 3
-9 1 -16 -6 -16 -6 0 -8 -4 -5 -10 7 -12 26 -14 23 -2 -3 14 14 42 23 36 5 -3
8 0 7 8 -2 7 3 12 10 10 8 -1 11 2 7 9 -5 8 -10 8 -18 0 -14 -14 -48 15 -40
35 4 10 0 13 -13 8 -15 -5 -16 -4 -4 4 18 13 33 5 26 -14 -5 -12 -2 -12 17 -2
12 7 25 11 29 10 4 -1 4 6 1 16 -3 9 -3 14 2 10 4 -4 17 -2 29 4 11 7 24 11
28 10 4 -1 5 6 2 16 -5 14 -3 14 10 -2 19 -24 21 -8 2 17 -11 14 -15 15 -25 4
-6 -8 -8 -17 -4 -20 3 -4 2 -7 -3 -8 -5 0 -19 -2 -31 -5 -24 -4 -31 10 -12 22
6 3 15 0 20 -7 6 -9 9 -10 9 -2 0 6 7 19 16 28 15 15 18 15 35 -1 11 -9 19
-13 19 -8 0 5 5 2 11 -6 9 -13 10 -13 6 0 -2 8 -10 14 -16 12 -6 -1 -11 5 -11
13 0 8 -6 15 -12 15 -7 1 0 8 16 17 29 15 29 16 10 31 -16 12 -16 14 -1 9 16
-6 23 9 18 37 -1 5 9 2 23 -8 21 -13 24 -14 20 -1 -4 8 -12 15 -20 15 -8 0
-14 5 -14 11 0 8 -5 7 -15 -1 -17 -14 -31 -8 -21 9 6 10 35 8 59 -4 6 -4 3 1
-8 10 -11 9 -19 19 -18 23 1 4 -1 9 -4 12 -4 3 -3 -1 1 -7 8 -15 -3 -17 -22
-4 -10 6 -8 10 9 14 19 5 21 9 11 19 -16 16 -15 25 4 32 10 4 13 2 8 -6 -5 -7
-3 -8 6 -3 10 6 11 4 4 -6 -14 -23 -12 -33 9 -54 11 -11 16 -14 12 -6 -13 22
-14 61 -2 61 5 0 7 3 4 7 -4 3 1 16 10 27 17 20 17 20 -1 6 -24 -19 -76 -21
-69 -3 3 7 9 13 15 13 5 0 7 -4 4 -9 -4 -5 3 -7 13 -4 40 10 36 64 -5 61 -28
-3 -30 -10 -7 -29 15 -12 16 -12 10 4 -7 19 8 24 19 6 10 -17 -13 -36 -27 -22
-6 6 -17 9 -24 7 -7 -3 -16 -1 -20 5 -4 7 0 8 11 4 12 -4 15 -3 10 6 -8 13 12
44 23 37 4 -3 13 -1 20 3 9 6 4 9 -13 9 -16 0 -33 -9 -41 -21 -8 -12 -15 -16
-15 -10 0 7 5 15 10 18 6 4 7 11 4 17 -5 7 -2 8 6 3 10 -6 12 -4 7 8 -3 8 0
18 8 21 9 3 12 0 9 -8 -4 -9 3 -14 20 -13 14 0 26 4 26 9 0 5 -4 7 -9 4 -14
-9 -32 20 -25 40 5 18 5 18 -9 1 -18 -22 -24 -22 -37 3 -6 11 -7 20 -3 19 18
-3 36 1 30 7 -3 4 4 15 16 25 12 10 17 18 12 19 -6 0 -16 -4 -23 -10 -7 -5 -5
-2 3 7 11 13 18 14 26 6 13 -13 42 -5 33 9 -4 6 4 5 16 -2 15 -8 20 -8 16 -1
-4 6 0 11 9 11 9 0 13 -5 10 -10 -3 -6 1 -13 9 -16 9 -3 13 -10 10 -15 -3 -5
2 -6 12 -2 14 5 14 7 -5 18 -28 14 -19 23 21 19 l31 -4 -27 21 c-21 17 -29 19
-41 9 -12 -10 -15 -10 -15 1 0 10 -3 10 -12 1 -15 -15 -28 -16 -28 -2 0 6 3 9
8 9 4 -1 9 0 12 1 22 9 59 5 80 -8 24 -15 24 -15 10 3 -14 17 -13 18 2 12 21
-7 30 4 18 23 -5 9 -3 18 6 24 24 19 0 40 -51 46 -5 0 -2 5 8 11 17 10 17 12
2 36 -10 14 -13 23 -7 19 5 -3 17 3 27 14 10 11 14 20 9 20 -5 0 -2 5 6 10 13
8 13 13 2 31 -12 19 -12 21 2 16 22 -9 31 12 13 31 -15 14 -15 17 1 29 16 12
16 13 -1 7 -10 -4 -17 -3 -16 2 4 23 -3 25 -26 10 -14 -9 -25 -12 -25 -7 0 5
6 12 13 15 8 3 6 9 -7 20 -11 9 -15 16 -9 16 7 0 15 -5 18 -10 4 -6 11 -7 17
-4 7 5 8 2 3 -6 -5 -9 -4 -11 4 -6 6 4 19 2 27 -5 8 -6 17 -9 21 -5 3 3 1 6
-6 6 -7 0 -9 5 -5 12 4 6 3 8 -3 5 -6 -4 -16 0 -23 8 -7 8 -16 12 -21 9 -5 -3
-9 0 -9 5 0 13 6 14 29 2 13 -7 18 -6 18 4 0 8 -7 11 -16 7 -14 -5 -14 -3 -2
11 7 9 19 17 27 17 7 0 15 4 18 9 4 5 -4 7 -16 4 l-23 -6 24 23 c22 22 23 24
6 36 -10 7 -21 11 -26 9 -4 -3 -10 -1 -14 5 -4 6 -11 8 -16 5 -15 -10 -10 2 8
16 11 10 14 10 9 2 -11 -19 14 -16 36 4 20 18 25 5 6 -17 -11 -12 -10 -12 4
-1 9 7 16 21 15 32 -1 11 -5 15 -10 10 -5 -5 -17 -7 -26 -4 -12 4 -13 3 -2 -5
9 -7 10 -12 2 -16 -6 -4 -12 -2 -12 3 -1 6 -2 16 -3 23 0 6 -7 13 -15 16 -9 3
-11 0 -6 -8 5 -9 4 -11 -4 -6 -15 10 -3 29 15 22 8 -3 14 -1 14 4 0 10 -13 14
-40 11 -12 -2 -13 0 -1 7 11 8 10 12 -5 21 -11 6 -14 11 -8 11 6 0 17 -7 24
-15 18 -21 25 -19 26 10 2 23 0 24 -15 13 -15 -12 -15 -11 -1 6 14 18 13 19
-2 13 -10 -4 -18 -2 -18 4 0 6 8 9 19 6 10 -2 26 0 35 5 16 9 16 7 7 -10 -13
-24 -15 -43 -2 -24 7 11 9 11 14 -1 4 -11 0 -15 -14 -12 -10 2 -19 0 -19 -6 0
-5 6 -9 13 -9 8 0 7 -4 -3 -10 -12 -8 -12 -10 -1 -10 11 0 11 -3 1 -14 -10
-13 -7 -14 16 -10 36 7 41 11 24 27 -10 9 -11 9 -6 0 8 -15 -10 -18 -19 -4 -3
6 2 14 11 19 13 7 14 13 5 30 -15 27 -14 37 2 24 8 -7 18 -8 27 -1 12 8 11 9
-4 7 -10 -2 -21 3 -24 11 -3 8 0 11 6 7 7 -4 9 1 7 15 -3 15 0 19 11 15 9 -3
12 -1 9 4 -3 6 -13 10 -21 10 -8 0 -14 5 -14 10 0 6 8 10 18 10 14 0 15 2 2
10 -13 9 -7 14 13 11 4 0 7 4 7 9 0 17 -18 11 -33 -11 -9 -11 -18 -16 -21 -11
-3 6 6 20 20 31 19 15 22 21 10 21 -9 0 -16 -5 -16 -11 0 -5 -5 -7 -12 -3 -7
5 -5 11 7 21 13 8 14 13 5 13 -7 0 -10 3 -7 7 4 3 2 12 -4 20 -7 8 -8 13 -1
13 5 0 17 -10 27 -22 16 -22 16 -22 0 5 -16 27 -12 53 6 42 5 -4 9 -1 9 4 0 6
-7 11 -15 11 -8 0 -15 -5 -15 -11 0 -5 -4 -8 -9 -5 -5 4 -8 14 -6 24 2 9 4 19
4 22 1 3 6 -2 12 -10 9 -13 10 -13 6 1 -7 20 35 42 52 28 7 -6 8 -5 2 2 -5 6
-7 18 -4 25 6 17 -13 19 -23 2 -5 -7 -2 -8 7 -3 12 7 12 5 1 -6 -11 -12 -14
-12 -21 0 -7 11 -10 9 -16 -8 -3 -12 -11 -18 -17 -15 -7 4 -8 2 -4 -4 5 -8 2
-10 -8 -6 -9 3 -16 1 -16 -6 0 -6 4 -9 8 -6 11 6 9 -34 -1 -51 -4 -6 -2 -15 4
-19 8 -5 8 -9 -2 -14 -17 -11 -39 -1 -39 18 0 13 3 12 15 -4 17 -22 20 -12 5
16 -6 11 -17 17 -25 14 -8 -4 -15 -2 -15 4 0 11 25 10 36 -1 4 -4 12 -7 17 -7
6 0 0 11 -13 25 -19 20 -26 23 -39 13 -13 -11 -3 5 28 42 2 3 1 -3 -2 -12 -3
-10 -2 -20 3 -23 6 -4 11 -1 11 4 1 6 2 15 3 21 0 5 10 16 21 25 16 13 17 16
3 11 -10 -3 -20 -1 -22 3 -3 5 5 7 17 6 12 -1 22 -3 22 -4 0 -2 8 -4 18 -6 11
-2 16 2 14 8 -2 7 -9 12 -15 12 -5 0 -13 3 -17 7 -4 3 0 5 9 4 8 -1 19 -5 22
-9 12 -12 37 -8 55 9 19 17 43 10 37 -10 -2 -6 7 -22 20 -36 22 -22 23 -23 13
-3 -8 16 -8 22 1 25 8 3 4 12 -9 25 l-20 20 26 0 c14 1 31 -6 37 -15 9 -13 13
-12 28 9 9 13 19 23 21 22 13 -7 26 -2 20 7 -4 6 -11 7 -17 4 -7 -4 -8 -2 -4
5 5 7 12 9 19 3 11 -8 25 -8 45 -2 4 1 13 3 21 4 8 0 15 7 17 14 1 7 0 8 -3 2
-5 -11 -24 -14 -21 -2 1 4 -4 20 -11 36 -11 27 -13 28 -30 12 -9 -9 -21 -16
-24 -16 -12 0 34 42 48 44 7 1 20 10 31 20 18 18 17 18 -6 11 -22 -7 -23 -6
-11 9 14 17 13 18 -21 20 -12 0 -22 9 -24 19 -1 9 2 15 7 11 5 -3 9 0 9 5 0 6
4 11 9 11 6 0 8 -8 6 -18 -2 -14 2 -18 18 -17 11 1 21 9 23 20 2 13 0 15 -9 6
-16 -16 -32 -14 -18 2 7 10 7 17 0 24 -8 8 -4 15 12 27 15 10 18 16 9 16 -13
0 -13 2 0 10 13 9 13 12 -3 21 -9 6 -15 15 -11 21 4 6 9 5 15 -3 5 -9 8 -6 7
11 -1 14 -5 30 -10 37 -6 7 -1 17 14 27 12 9 18 16 12 16 -13 0 -54 34 -54 45
0 4 7 2 15 -5 8 -6 19 -9 24 -6 5 4 13 1 17 -5 5 -8 3 -9 -7 -4 -11 6 -12 5
-2 -5 7 -8 15 -11 19 -8 9 9 -16 49 -26 43 -6 -3 -18 -1 -27 5 -17 11 -17 11
0 6 22 -7 49 3 41 16 -4 6 2 5 14 -1 12 -7 23 -7 26 -2 4 5 0 11 -6 14 -10 3
-10 8 1 18 8 8 11 9 7 2 -8 -15 4 -22 43 -27 17 -2 37 -7 44 -12 7 -5 5 -2 -5
8 -22 19 -23 29 -4 22 17 -6 31 12 16 21 -16 10 -12 25 8 25 16 1 16 1 0 11
-17 9 -17 11 -1 36 17 26 17 26 -4 14 -16 -8 -20 -18 -17 -37 3 -19 1 -24 -8
-18 -7 5 -5 -4 5 -19 9 -15 13 -27 8 -27 -14 0 -32 26 -23 35 4 5 2 5 -5 1 -6
-3 -10 -15 -8 -26 3 -13 0 -18 -7 -14 -7 4 -8 3 -4 -4 5 -8 1 -10 -10 -5 -14
5 -14 7 -1 15 9 4 14 17 12 28 -2 11 0 18 5 15 5 -3 14 3 20 14 8 16 6 22 -7
30 -11 6 -13 11 -5 11 9 0 10 5 3 19 -6 10 -7 21 -3 25 3 4 0 11 -8 16 -11 7
-12 10 -2 10 7 0 10 5 7 10 -4 6 -1 9 6 8 6 -2 14 3 17 11 3 8 0 11 -7 7 -17
-11 -13 0 6 15 14 12 16 12 8 0 -5 -10 -4 -12 4 -7 6 4 20 2 29 -6 15 -12 16
-11 4 4 -8 9 -10 23 -6 30 5 10 4 10 -6 1 -7 -6 -18 -9 -25 -7 -7 3 -16 1 -20
-5 -3 -6 -12 -11 -18 -11 -7 0 -4 5 6 11 9 6 15 15 11 21 -4 6 1 8 13 4 14 -4
20 -2 20 9 0 9 -6 14 -13 11 -8 -3 -11 0 -7 10 4 11 9 12 19 3 8 -6 11 -15 8
-20 -3 -5 0 -9 6 -9 8 0 9 7 5 18 -4 9 -8 25 -10 35 -4 15 -2 17 10 7 8 -7 13
-16 10 -20 -3 -5 0 -12 6 -16 7 -4 9 -3 5 4 -9 14 15 21 36 10 14 -7 16 -5 11
9 -6 16 -5 17 13 3 15 -11 16 -11 7 0 -18 20 -16 35 2 20 9 -7 18 -10 22 -6 3
3 0 6 -8 7 -8 0 -6 4 6 9 18 8 18 9 2 9 -10 1 -15 6 -12 11 4 7 12 7 25 0 13
-7 21 -7 26 2 5 7 3 8 -6 3 -8 -5 -11 -3 -8 6 3 8 14 13 24 11 18 -2 18 -2 1
8 -13 8 -15 16 -7 29 5 10 6 22 2 26 -4 4 3 4 15 1 12 -4 24 -3 27 2 3 6 -2 9
-12 8 -11 -1 -16 6 -15 17 1 13 -4 17 -15 13 -15 -5 -15 -5 -1 6 8 7 21 22 27
33 11 19 11 19 9 -2 -1 -13 -6 -23 -12 -23 -5 0 -3 -5 5 -10 10 -6 11 -10 3
-10 -7 0 -13 -5 -13 -12 0 -9 3 -9 11 -1 6 6 19 9 28 6 12 -4 13 -3 2 5 -11 8
-11 11 0 18 7 4 14 3 17 -4 2 -7 8 -12 14 -12 7 0 6 5 -1 14 -8 10 -9 16 -1
21 5 3 10 0 10 -7 1 -8 7 -5 16 7 8 11 25 19 37 18 21 -3 21 -2 2 6 -11 5 -22
7 -25 5 -4 -1 -12 7 -19 19 -11 18 -11 20 0 10 7 -7 23 -13 35 -13 13 0 26 -4
29 -10 8 -13 25 -13 25 0 0 6 -3 9 -7 9 -21 -3 -24 3 -12 18 10 11 10 14 2 9
-23 -13 -52 -15 -59 -3 -4 7 -4 9 1 5 10 -10 38 29 31 41 -3 5 0 11 8 14 17 7
15 -15 -3 -37 -8 -9 -11 -19 -8 -23 4 -3 9 1 13 10 3 9 12 13 19 11 7 -3 16
-1 20 5 4 7 -1 8 -12 4 -17 -6 -17 -5 1 15 10 12 22 19 27 17 4 -3 10 -1 13 4
7 11 -13 9 -32 -2 -7 -5 -14 -2 -18 6 -3 9 -13 13 -25 10 -10 -3 -19 0 -19 6
0 6 7 8 17 4 12 -5 14 -3 8 7 -11 18 -13 60 -3 54 4 -3 8 -12 8 -20 0 -8 5
-12 10 -9 7 4 7 12 0 24 -5 10 -6 21 -3 25 3 3 1 6 -6 6 -7 0 -9 5 -6 10 10
16 23 12 21 -7 0 -10 1 -18 4 -19 3 0 15 -6 28 -13 12 -6 22 -8 22 -4 0 5 -10
13 -22 18 -12 6 -23 19 -24 30 -3 19 -2 19 10 3 7 -10 19 -18 27 -18 11 0 11
2 -1 10 -17 11 -20 32 -5 42 6 5 5 8 -3 8 -7 0 -10 5 -7 10 3 6 1 10 -5 10 -6
0 -9 4 -5 10 3 5 13 7 23 4 13 -5 14 -4 3 4 -8 6 -10 15 -6 23 5 8 5 11 0 7
-9 -9 -35 9 -35 24 0 6 6 5 15 -2 8 -6 20 -10 27 -7 8 4 7 6 -4 6 -9 1 -20 6
-23 11 -4 7 2 9 18 5 14 -4 28 -2 31 3 3 6 -2 8 -11 6 -10 -2 -24 0 -32 5 -12
7 -11 12 1 30 8 11 19 18 24 13 5 -4 6 -3 2 2 -4 5 -3 15 4 23 8 11 7 12 -5 7
-8 -3 -18 -12 -21 -20 -3 -9 -10 -12 -16 -9 -15 9 -12 27 3 19 6 -4 9 -4 5 1
-4 4 0 14 10 22 13 10 14 13 2 11 -8 -2 -18 -7 -22 -13 -5 -6 -8 -6 -8 2 0 7
8 17 18 22 14 9 13 10 -8 7 -14 -3 -26 -5 -28 -5 -1 -1 2 -10 8 -20 7 -13 7
-22 0 -26 -14 -8 -13 -26 1 -22 6 1 13 -4 15 -11 1 -7 0 -8 -3 -2 -3 7 -11 7
-24 0 -17 -10 -18 -8 -9 14 7 20 6 26 -8 29 -16 4 -16 5 1 6 9 0 17 5 17 11 0
5 -8 7 -17 4 -15 -5 -15 -4 -4 4 11 8 12 14 4 24 -8 10 -8 18 3 32 7 10 11 23
8 28 -3 4 4 21 15 37 20 28 20 28 1 46 -22 20 -26 14 -10 -15 12 -21 -8 -43
-29 -31 -10 6 -9 10 3 14 9 4 16 12 16 18 0 8 -6 7 -17 -2 -16 -12 -17 -12 -6
2 7 9 10 19 6 22 -3 4 -1 7 6 7 8 0 11 7 7 15 -3 8 -2 14 2 14 18 -3 22 2 10
15 -10 10 -15 11 -21 2 -6 -7 -7 -6 -4 4 2 8 11 14 19 12 9 -1 22 5 29 14 12
15 11 16 -10 9 -16 -5 -21 -4 -17 4 4 6 14 11 23 11 9 0 13 6 9 15 -4 13 -2
13 14 5 25 -13 27 -13 27 5 0 9 -6 14 -12 11 -6 -2 -12 2 -12 9 0 11 5 11 20
4 16 -9 18 -8 12 10 -4 13 -2 21 5 21 6 0 9 -4 6 -9 -3 -5 8 -8 24 -7 16 0 32
7 35 14 3 9 -1 12 -13 8 -9 -3 -24 -1 -32 5 -13 9 -13 10 0 8 35 -3 61 2 55
11 -3 6 -1 11 4 11 15 2 23 4 43 13 9 4 26 2 38 -4 16 -9 25 -8 38 2 14 11 15
10 8 -7 -6 -16 -5 -18 5 -7 19 18 33 14 18 -5 -13 -16 -12 -17 3 -4 20 15 15
31 -10 31 -12 0 -13 3 -4 12 8 8 15 8 29 -2 15 -12 16 -12 6 0 -19 21 -16 35
4 19 14 -12 16 -12 8 0 -6 11 -4 13 10 7 14 -5 16 -4 6 7 -18 22 11 42 39 27
12 -6 24 -9 27 -7 2 3 -5 8 -16 12 -12 3 -19 11 -15 16 3 6 12 5 22 -3 16 -12
16 -11 2 6 -14 18 -13 19 1 14 20 -8 39 9 32 28 -3 8 0 14 6 14 7 0 16 10 21
23 8 20 9 20 10 2 1 -20 1 -20 15 -1 8 10 12 24 8 30 -3 6 0 6 7 -1 10 -9 10
-15 2 -26 -7 -8 -8 -18 -4 -22 4 -5 1 -5 -7 0 -9 5 -12 4 -7 -3 4 -7 -1 -10
-14 -7 -13 3 -18 0 -14 -7 5 -7 2 -8 -6 -3 -9 5 -11 4 -6 -3 4 -7 4 -18 -1
-24 -10 -17 -14 -42 -5 -33 4 4 7 12 7 18 1 7 7 11 14 9 8 -2 11 3 8 12 -4 9
-2 18 3 21 6 4 10 2 10 -3 0 -6 7 -13 16 -16 15 -6 15 -4 3 11 -12 14 -12 16
1 11 13 -5 16 2 15 36 0 22 -4 47 -9 55 -6 9 -5 12 2 8 7 -5 11 87 11 303 l2
310 -3498 0 -3498 0 0 -198z m22 99 c0 -11 -5 -18 -9 -15 -4 3 -5 11 -1 19 7
21 12 19 10 -4z m23 -25 c0 -2 -6 -9 -14 -15 -11 -9 -16 -9 -22 0 -4 7 -3 9 4
5 6 -3 13 -2 17 4 6 10 15 14 15 6z m-20 -56 c0 -5 -5 -10 -11 -10 -5 0 -7 5
-4 10 3 6 8 10 11 10 2 0 4 -4 4 -10z m-5 -120 c3 -5 1 -10 -4 -10 -6 0 -11 5
-11 10 0 6 2 10 4 10 3 0 8 -4 11 -10z m-4 -73 c-10 -9 -11 -8 -5 6 3 10 9 15
12 12 3 -3 0 -11 -7 -18z m10 -99 c1 -7 0 -20 -1 -27 -1 -12 1 -13 13 -2 14
11 15 8 12 -19 -4 -27 -2 -30 10 -20 8 7 15 9 15 4 0 -4 6 0 13 10 12 17 14
17 27 -1 11 -14 11 -16 0 -6 -11 10 -16 9 -26 -5 -17 -21 -18 -40 -2 -24 7 7
17 12 23 12 5 0 2 -5 -7 -11 -10 -5 -18 -15 -18 -21 0 -7 4 -7 14 1 7 6 21 8
30 5 14 -5 14 -9 4 -22 -11 -13 -10 -14 10 -8 14 5 22 3 22 -4 0 -6 6 -8 13
-4 9 6 9 4 0 -7 -20 -21 -15 -34 5 -16 10 10 22 17 26 17 4 0 -6 -11 -21 -24
l-28 -25 -35 34 c-19 19 -39 34 -45 35 -5 0 -10 6 -11 13 -3 40 -4 41 -20 21
-8 -10 -12 -13 -9 -6 4 7 -1 22 -11 33 -21 23 -27 49 -12 49 6 0 5 6 -2 15 -9
10 -9 15 -1 15 6 0 12 -6 12 -12z m55 -13 c0 -14 -4 -25 -8 -25 -6 0 -5 25 1
48 3 10 7 -2 7 -23z m92 -75 c7 -12 8 -21 2 -25 -6 -4 -9 -1 -8 7 2 7 -4 12
-14 10 -9 -1 -19 2 -23 8 -4 6 1 7 12 3 16 -6 16 -5 4 10 -12 15 -12 17 0 12
8 -3 20 -14 27 -25z m42 -36 c0 -8 -19 -13 -24 -6 -3 5 1 9 9 9 8 0 15 -2 15
-3z m6745 -32 c-3 -3 -11 0 -18 7 -9 10 -8 11 6 5 10 -3 15 -9 12 -12z m-6620
-32 c3 -5 1 -10 -4 -10 -6 0 -11 5 -11 10 0 6 2 10 4 10 3 0 8 -4 11 -10z m45
-19 c0 -6 -4 -12 -8 -15 -5 -3 -9 1 -9 9 0 8 4 15 9 15 4 0 8 -4 8 -9z m6520
-1 c0 -5 -5 -10 -11 -10 -5 0 -7 5 -4 10 3 6 8 10 11 10 2 0 4 -4 4 -10z m-45
-21 c-4 -5 -12 -9 -18 -8 -9 0 -8 2 1 6 6 2 9 10 6 15 -4 7 -2 8 5 4 6 -4 9
-12 6 -17z m-6395 1 c0 -5 -5 -10 -11 -10 -5 0 -7 5 -4 10 3 6 8 10 11 10 2 0
4 -4 4 -10z m6316 -17 c-1 -18 4 -27 17 -29 29 -4 31 -11 8 -40 -11 -15 -21
-22 -21 -15 0 6 -15 -6 -33 -26 -33 -35 -35 -36 -58 -20 -13 10 -18 17 -12 17
7 0 15 -4 18 -10 3 -5 11 -10 17 -10 6 0 4 8 -5 18 -10 10 -17 25 -16 33 0 8
5 3 10 -10 8 -19 12 -21 24 -11 8 7 12 16 9 21 -5 8 9 13 29 10 14 -2 7 18
-10 28 -10 6 -13 11 -6 11 6 0 15 -4 18 -10 3 -5 11 -10 17 -10 7 0 6 7 -3 18
-13 15 -15 26 -10 55 3 18 8 4 7 -20z m-6361 7 c-3 -5 -12 -10 -18 -10 -7 0
-6 4 3 10 19 12 23 12 15 0z m6480 -21 c-3 -4 -12 -6 -19 -3 -7 3 -18 -2 -25
-10 -11 -13 -15 -12 -33 6 -11 11 -17 23 -13 26 4 4 11 -1 16 -11 6 -9 15 -17
20 -17 6 0 7 5 3 12 -4 6 -3 8 3 5 6 -4 14 0 17 9 5 13 9 14 21 4 8 -7 12 -16
10 -21z m-6280 -49 c3 -5 1 -10 -4 -10 -6 0 -11 5 -11 10 0 6 2 10 4 10 3 0 8
-4 11 -10z m-62 -27 c-5 -12 -3 -14 7 -8 9 6 11 4 5 -4 -5 -9 -11 -9 -17 -3
-6 6 -7 15 -4 21 11 17 16 13 9 -6z m6118 -6 c-10 -9 -11 -8 -5 6 3 10 9 15
12 12 3 -3 0 -11 -7 -18z m-81 -21 c0 -2 -8 -10 -17 -17 -16 -13 -17 -12 -4 4
13 16 21 21 21 13z m50 -8 c0 -4 -4 -8 -9 -8 -6 0 -12 4 -15 8 -3 5 1 9 9 9 8
0 15 -4 15 -9z m-5962 -23 c-3 -3 -9 2 -12 12 -6 14 -5 15 5 6 7 -7 10 -15 7
-18z m-128 0 c0 -2 -7 -8 -15 -15 -12 -10 -15 -10 -15 2 0 8 7 15 15 15 8 0
15 -1 15 -2z m170 -13 c0 -5 -7 -9 -15 -9 -8 0 -12 4 -9 9 3 4 9 8 15 8 5 0 9
-4 9 -8z m3 -39 c-7 -2 -19 -2 -25 0 -7 3 -2 5 12 5 14 0 19 -2 13 -5z m5758
-6 c-6 -8 -8 -17 -4 -20 3 -4 1 -7 -5 -7 -15 0 -15 13 0 28 16 16 23 15 9 -1z
m-65 -33 c1 -9 0 -13 -4 -10 -3 4 -7 14 -8 22 -1 9 0 13 4 10 3 -4 7 -14 8
-22z m0 -44 c0 -12 -4 -16 -9 -11 -5 5 -6 14 -3 20 10 15 12 14 12 -9z m-5690
-33 c3 -10 3 -21 0 -24 -3 -4 -6 2 -6 11 0 12 -5 16 -14 13 -10 -4 -13 -1 -9
9 3 8 2 14 -3 13 -18 -3 -25 1 -19 11 8 13 44 -10 51 -33z m38 35 c3 -5 -1 -9
-9 -9 -8 0 -12 4 -9 9 3 4 7 8 9 8 2 0 6 -4 9 -8z m5649 -77 c-3 -9 -8 -14
-10 -11 -3 3 -2 9 2 15 9 16 15 13 8 -4z m-5663 1 c0 -3 -4 -8 -10 -11 -5 -3
-10 -1 -10 4 0 6 5 11 10 11 6 0 10 -2 10 -4z m-17 -40 c-3 -6 -13 -19 -21
-28 -13 -16 -12 -17 17 -13 17 2 29 0 26 -5 -3 -5 -11 -7 -18 -4 -7 2 -13 -4
-14 -16 -1 -11 2 -18 6 -16 4 3 8 -2 8 -10 0 -10 -11 -5 -31 16 -28 28 -29 32
-14 41 10 6 15 16 12 27 -5 14 -4 15 5 2 9 -12 11 -12 11 -1 0 8 -8 20 -17 28
-16 12 -15 12 9 2 15 -7 25 -17 21 -23z m37 0 c0 -2 -8 -10 -17 -17 -16 -13
-17 -12 -4 4 13 16 21 21 21 13z m5651 -93 c-12 -20 -14 -14 -5 12 4 9 9 14
11 11 3 -2 0 -13 -6 -23z m-5667 -39 c3 -8 2 -12 -4 -9 -6 3 -10 10 -10 16 0
14 7 11 14 -7z m5719 -118 c3 -7 0 -19 -6 -25 -8 -8 -6 -16 7 -30 18 -19 14
-47 -5 -36 -5 4 -9 1 -9 -5 0 -6 -4 -8 -10 -5 -5 3 -10 11 -10 16 0 6 5 7 10
4 16 -10 11 6 -8 23 -9 10 -13 14 -8 10 16 -13 22 -9 22 12 0 15 -6 19 -23 15
-12 -2 -26 1 -29 7 -4 6 -2 8 4 4 6 -3 13 -2 17 3 3 6 13 7 22 4 11 -4 14 -3
9 5 -4 7 -3 12 2 12 6 0 12 -6 15 -14z m-5713 -36 c0 -5 -5 -10 -11 -10 -5 0
-7 5 -4 10 3 6 8 10 11 10 2 0 4 -4 4 -10z m-39 -17 c13 -16 12 -17 -3 -4 -17
13 -22 21 -14 21 2 0 10 -8 17 -17z m5743 -57 c9 3 16 2 17 -2 0 -5 2 -16 4
-25 2 -12 -4 -15 -27 -13 -16 2 -26 0 -23 -5 3 -5 1 -12 -4 -15 -5 -4 -8 2 -7
11 2 10 9 19 17 19 8 1 20 2 27 3 7 0 11 5 7 11 -3 5 -12 7 -19 4 -7 -3 -19 3
-27 13 -13 16 -12 17 2 5 9 -7 24 -10 33 -6z m-5727 -18 c2 -17 0 -19 -7 -8
-5 8 -6 18 -4 22 8 12 10 10 11 -14z m5693 -64 c0 -8 -19 -13 -24 -6 -3 5 1 9
9 9 8 0 15 -2 15 -3z m-5693 -31 c2 -6 -8 -18 -22 -27 -14 -9 -25 -13 -24 -9
1 4 0 10 -1 13 -11 30 -7 40 18 37 14 -2 27 -8 29 -14z m5683 -8 c0 -8 -4 -15
-10 -15 -5 0 -7 7 -4 15 4 8 8 15 10 15 2 0 4 -7 4 -15z m-5675 -39 c0 -14 -5
-22 -12 -19 -14 6 -13 24 2 35 6 4 10 8 10 8 0 0 0 -11 0 -24z m51 -1 c-3 -23
-22 -39 -31 -26 -3 7 -1 10 6 9 7 -2 14 3 15 10 2 19 4 22 8 22 2 0 3 -7 2
-15z m-43 -38 c4 3 7 2 7 -4 0 -17 -24 -22 -43 -8 -14 10 -15 14 -5 18 7 2 18
0 24 -4 6 -5 14 -6 17 -2z m112 -27 c-3 -5 -12 -10 -18 -10 -7 0 -6 4 3 10 19
12 23 12 15 0z m-26 -33 c8 -10 7 -14 -2 -14 -8 0 -14 6 -14 14 0 7 1 13 2 13
2 0 8 -6 14 -13z m5557 -44 c-2 -3 -8 -5 -13 -5 -4 0 -20 -9 -35 -20 -22 -15
-27 -16 -22 -4 3 9 12 16 20 16 7 0 12 6 10 13 -1 6 -1 9 1 4 3 -4 9 -4 14 -1
6 3 5 12 -3 22 -9 12 -6 11 10 -2 12 -11 20 -21 18 -23z m-105 10 c13 -16 12
-17 -3 -4 -10 7 -18 15 -18 17 0 8 8 3 21 -13z m-5535 -33 c0 -20 -7 -25 -19
-13 -4 3 -2 12 4 20 15 17 15 17 15 -7z m95 5 c5 4 6 -1 2 -10 -5 -13 -7 -14
-14 -3 -5 7 -8 18 -8 23 0 6 3 4 6 -3 2 -6 9 -10 14 -7z m37 -7 c10 -12 10
-18 1 -24 -7 -4 -9 -3 -5 4 3 6 2 13 -4 17 -5 3 -10 11 -10 17 0 6 1 9 3 7 1
-2 8 -11 15 -21z m52 8 c0 -3 -4 -8 -10 -11 -5 -3 -10 -1 -10 4 0 6 5 11 10
11 6 0 10 -2 10 -4z m45 -6 c-3 -5 -12 -10 -18 -10 -7 0 -6 4 3 10 19 12 23
12 15 0z m5253 -22 c-2 -7 3 -12 10 -10 8 1 11 -2 7 -8 -5 -8 -11 -8 -21 1 -7
6 -11 15 -8 20 8 13 14 11 12 -3z m-5300 -23 c-3 -3 -9 2 -12 12 -6 14 -5 15
5 6 7 -7 10 -15 7 -18z m5336 -17 c-1 -13 -3 -27 -3 -33 -1 -5 -5 -3 -10 4 -6
9 -6 22 0 33 13 24 16 23 13 -4z m-43 -5 c13 -16 12 -17 -3 -4 -10 7 -18 15
-18 17 0 8 8 3 21 -13z m-5257 -14 c-2 -4 -15 -6 -30 -6 -14 0 -21 2 -15 6 5
4 19 7 30 7 11 0 18 -3 15 -7z m5270 -21 c-3 -4 2 -8 12 -8 13 0 14 -3 4 -15
-7 -8 -15 -13 -19 -10 -9 5 -63 -41 -59 -51 6 -14 -31 -12 -43 3 -8 9 -9 13
-1 11 6 -2 18 6 26 17 15 19 16 19 9 1 -5 -16 0 -14 30 9 24 20 33 33 27 40
-7 8 -5 12 5 12 8 0 12 -4 9 -9z m-5267 -12 c0 -8 -6 -12 -15 -8 -11 4 -13 1
-7 -8 6 -9 4 -11 -5 -5 -10 6 -9 11 5 22 23 16 22 16 22 -1z m5223 -4 c0 -5
-7 -9 -15 -9 -8 0 -12 4 -9 9 3 4 9 8 15 8 5 0 9 -4 9 -8z m-5204 -76 c3 -18
-29 -13 -34 5 -3 11 -1 11 7 -1 10 -14 16 -7 11 15 -1 6 2 6 6 2 4 -4 9 -14
10 -21z m-45 -39 c-19 -19 -12 -31 8 -13 14 13 21 14 27 5 4 -8 3 -10 -5 -5
-6 4 -14 0 -17 -9 -4 -10 -13 -14 -23 -11 -9 4 -3 -5 12 -19 15 -14 24 -25 20
-25 -4 0 -1 -5 7 -10 10 -7 11 -10 2 -10 -7 0 -15 7 -18 15 -4 8 -10 12 -15 9
-15 -9 -10 -22 12 -29 11 -4 18 -9 15 -12 -3 -4 -1 -12 5 -20 9 -10 15 -11 26
-2 11 9 12 9 8 -3 -3 -9 -17 -20 -31 -27 -14 -6 -22 -16 -18 -22 4 -8 9 -7 15
2 6 11 9 10 15 -4 3 -9 1 -23 -5 -31 -9 -10 -8 -15 4 -20 9 -3 13 -2 10 3 -3
5 0 13 6 17 8 4 9 3 5 -4 -4 -7 -1 -12 6 -12 8 -1 7 -5 -5 -14 -11 -8 -14 -17
-8 -20 5 -4 17 4 25 16 9 12 19 19 23 15 4 -4 -3 -14 -15 -23 -12 -8 -22 -22
-22 -31 0 -12 3 -12 18 4 9 10 14 14 10 8 -8 -12 -5 -41 5 -51 4 -4 8 -1 8 7
1 8 2 20 3 28 2 21 23 24 30 5 5 -14 4 -15 -9 -4 -13 11 -14 8 -11 -21 4 -37
-1 -59 -16 -59 -5 0 -6 5 -3 10 3 6 1 10 -5 10 -6 0 -9 4 -6 9 7 10 -38 54
-46 45 -4 -3 -5 2 -4 13 2 10 -4 28 -12 41 -8 12 -11 22 -8 22 4 0 1 10 -5 22
-11 20 -13 20 -24 5 -11 -15 -14 -15 -24 -3 -9 10 -9 16 -1 21 6 4 8 15 5 25
-3 10 -1 21 5 25 6 3 7 12 3 18 -4 7 -8 35 -8 62 -1 40 -5 50 -18 49 -9 -1
-14 2 -11 7 3 5 16 7 30 5 22 -4 24 -2 19 17 -5 20 -5 20 6 4 8 -14 8 -22 0
-30z m5129 18 c0 -7 -30 -13 -34 -7 -3 4 4 9 15 9 10 1 19 0 19 -2z m-5078
-47 c-8 -8 -8 -17 -1 -32 10 -20 10 -20 -5 -2 -9 11 -16 16 -16 11 0 -4 -3 -5
-7 -2 -3 4 2 14 13 22 23 17 32 19 16 3z m33 -7 c3 -5 2 -12 -3 -15 -5 -3 -9
1 -9 9 0 17 3 19 12 6z m45 -91 c0 -5 -5 -10 -11 -10 -5 0 -7 5 -4 10 3 6 8
10 11 10 2 0 4 -4 4 -10z m4974 -26 c3 -8 2 -12 -4 -9 -6 3 -10 10 -10 16 0
14 7 11 14 -7z m-4979 -14 c3 -5 1 -10 -4 -10 -6 0 -11 5 -11 10 0 6 2 10 4
10 3 0 8 -4 11 -10z m-30 -20 c3 -5 -4 -6 -15 -3 -11 3 -22 9 -25 13 -3 5 4 6
15 3 11 -3 22 -9 25 -13z m4991 -54 c0 -14 -5 -21 -9 -17 -4 4 -5 15 -1 24 9
24 12 21 10 -7z m-4927 -122 c4 3 8 -1 8 -9 0 -8 -4 -15 -9 -15 -4 0 -8 5 -8
11 0 5 -4 7 -10 4 -6 -4 -7 1 -3 11 4 11 8 13 11 6 2 -7 7 -10 11 -8z m4836
-44 c-11 -12 -12 -19 -3 -28 9 -9 7 -16 -6 -31 -12 -13 -14 -21 -6 -26 13 -8
9 -35 -8 -54 -10 -10 -10 -16 -1 -27 15 -18 4 -18 -14 0 -15 15 -12 66 4 66 5
0 6 -8 3 -17 -5 -14 -4 -15 4 -4 11 16 5 44 -8 36 -5 -3 -12 5 -16 17 -13 40
-13 47 4 41 11 -5 13 -3 7 8 -4 8 -5 11 0 7 9 -9 35 9 35 24 0 6 -7 5 -15 -2
-13 -11 -14 -10 -9 4 4 11 2 15 -7 13 -8 -2 -11 -2 -6 0 4 3 5 9 2 14 -3 5 8
1 24 -9 26 -15 28 -19 16 -32z m-4852 11 c5 0 5 -5 2 -11 -8 -13 8 -13 22 1 8
8 13 7 18 -3 5 -7 5 -10 0 -6 -4 4 -14 3 -21 -2 -6 -6 -18 -9 -25 -8 -8 2 -14
-7 -15 -19 -1 -12 3 -20 8 -17 4 3 6 10 2 15 -3 6 5 7 22 3 21 -6 25 -4 19 7
-5 8 -4 10 0 6 18 -16 13 -34 -9 -30 -16 3 -22 -1 -23 -16 -1 -13 3 -18 13
-14 16 6 19 -12 4 -22 -15 -9 -12 -25 6 -25 8 0 12 5 9 10 -3 6 -1 10 5 10 7
0 10 -6 7 -14 -8 -21 4 -28 22 -14 13 11 3 -5 -28 -42 -2 -3 -1 3 2 13 7 19 6
20 -16 11 -14 -5 -14 -8 1 -24 8 -11 20 -16 25 -13 6 3 7 1 4 -4 -4 -6 0 -14
9 -17 12 -5 14 -1 9 17 -5 20 -5 20 6 3 9 -15 7 -22 -13 -40 -26 -23 -54 -33
-42 -15 3 6 0 15 -7 20 -12 7 -12 9 0 9 11 0 11 3 1 15 -7 8 -9 15 -5 15 4 0
2 7 -5 15 -10 12 -9 16 4 21 15 6 15 8 1 18 -8 6 -17 21 -19 33 -3 12 -12 33
-21 47 -10 14 -14 26 -9 26 4 0 0 6 -11 13 -32 24 -9 37 48 28z m132 -91 c-3
-5 -12 -10 -18 -10 -7 0 -6 4 3 10 19 12 23 12 15 0z m4665 -14 c0 -2 -8 -10
-17 -17 -16 -13 -17 -12 -4 4 13 16 21 21 21 13z m-4691 -59 c8 -10 7 -14 -2
-14 -8 0 -14 6 -14 14 0 7 1 13 2 13 2 0 8 -6 14 -13z m4688 -23 c-3 -3 -12
-4 -19 -1 -8 3 -5 6 6 6 11 1 17 -2 13 -5z m-4634 -39 c-3 -9 -8 -14 -10 -11
-3 3 -2 9 2 15 9 16 15 13 8 -4z m4665 -28 c-15 -12 -15 -14 0 -25 15 -10 15
-11 -3 -5 -36 11 -38 16 -14 29 30 17 39 17 17 1z m-4667 -50 c-10 -9 -11 -8
-5 6 3 10 9 15 12 12 3 -3 0 -11 -7 -18z m29 -42 c0 -7 -30 -13 -34 -7 -3 4 4
9 15 9 10 1 19 0 19 -2z m4640 -29 c-6 -8 -18 -12 -26 -9 -19 7 -7 23 18 23
17 0 18 -3 8 -14z m-4630 -12 c0 -8 -19 -13 -24 -6 -3 5 1 9 9 9 8 0 15 -2 15
-3z m4365 -24 c3 -5 1 -10 -4 -10 -6 0 -11 5 -11 10 0 6 2 10 4 10 3 0 8 -4
11 -10z m39 -5 c6 -18 -29 -41 -39 -25 -4 6 -3 10 2 9 22 -4 32 2 27 16 -4 8
-4 15 -1 15 3 0 7 -7 11 -15z m-114 -15 c0 -5 -2 -10 -4 -10 -3 0 -8 5 -11 10
-3 6 -1 10 4 10 6 0 11 -4 11 -10z m-4265 -9 c3 -5 2 -12 -3 -15 -5 -3 -9 1
-9 9 0 17 3 19 12 6z m-38 -17 c-4 -4 2 -19 13 -34 11 -16 20 -32 20 -36 0 -5
-11 8 -25 28 -28 42 -30 48 -13 48 6 0 8 -3 5 -6z m-23 -85 c-3 -5 -10 -7 -15
-3 -5 3 -7 10 -3 15 3 5 10 7 15 3 5 -3 7 -10 3 -15z m121 -29 c3 -5 1 -10 -4
-10 -6 0 -11 5 -11 10 0 6 2 10 4 10 3 0 8 -4 11 -10z m-100 -19 c3 -5 2 -12
-3 -15 -5 -3 -9 1 -9 9 0 17 3 19 12 6z m89 -46 c-7 -16 -24 -21 -24 -6 0 8 7
13 27 20 1 1 0 -6 -3 -14z m4242 0 c-1 -8 -5 -18 -9 -21 -4 -4 -2 -13 4 -20 7
-8 6 -14 -2 -20 -8 -4 -9 -3 -5 4 4 7 2 12 -3 12 -6 0 -11 -7 -11 -15 0 -8 4
-15 10 -15 5 0 16 -13 25 -30 14 -27 14 -30 -2 -38 -22 -11 -52 -7 -67 9 -8 9
-6 9 12 0 12 -6 22 -8 22 -3 0 5 -10 14 -22 21 -20 9 -20 10 -3 6 16 -4 21 0
21 15 0 15 -6 19 -23 16 -16 -3 -20 -1 -16 11 4 11 8 12 13 2 6 -8 11 -6 19 9
16 30 14 37 -6 21 -17 -13 -17 -13 -3 5 14 18 13 19 -2 13 -10 -4 -18 -2 -18
4 0 6 9 9 20 6 10 -3 24 1 31 9 15 18 18 18 15 -1z m-4229 -27 c-3 -8 -6 -5
-6 6 -1 11 2 17 5 13 3 -3 4 -12 1 -19z m46 -49 c-8 -8 -13 -7 -18 2 -5 8 -4
10 3 5 15 -9 16 6 2 22 -5 7 -2 5 7 -3 12 -11 14 -18 6 -26z m17 -39 c0 -5 -7
-7 -15 -4 -8 4 -15 8 -15 10 0 2 7 4 15 4 8 0 15 -4 15 -10z m-9 -27 c13 -16
12 -17 -3 -4 -10 7 -18 15 -18 17 0 8 8 3 21 -13z m64 7 c3 -5 1 -10 -4 -10
-6 0 -11 5 -11 10 0 6 2 10 4 10 3 0 8 -4 11 -10z m-21 -71 c-3 -5 0 -17 8
-26 12 -15 11 -15 -9 -2 -24 15 -30 29 -12 29 5 0 7 5 3 12 -4 7 -3 8 5 4 6
-4 9 -12 5 -17z m-50 -16 c-4 10 -1 17 6 17 6 0 9 -4 5 -9 -3 -6 3 -14 12 -20
10 -6 12 -11 6 -11 -7 0 -13 -5 -13 -11 0 -6 7 -8 16 -5 10 4 13 2 8 -6 -5 -8
-2 -9 10 -5 13 5 15 3 7 -12 -6 -10 -7 -21 -4 -25 3 -3 1 -6 -6 -6 -6 0 -11 8
-9 18 2 10 -3 17 -14 17 -24 0 -38 17 -44 51 -5 28 -5 28 10 9 13 -16 15 -17
10 -2z m4114 -64 c10 -13 10 -18 0 -22 -8 -3 -14 5 -14 20 -1 13 -1 23 0 21 1
-2 7 -10 14 -19z m-4018 -13 c-7 -7 -13 -7 -20 0 -6 6 -3 10 10 10 13 0 16 -4
10 -10z m-24 -43 c-1 -16 -5 -34 -10 -42 -7 -10 -1 -21 18 -38 15 -12 23 -23
17 -23 -5 0 -13 5 -16 10 -4 7 -12 7 -18 2 -7 -4 -18 -7 -24 -6 -7 1 -17 2
-23 3 -5 0 -10 6 -10 12 0 5 4 8 9 5 19 -12 19 23 0 40 -19 17 -27 40 -10 29
5 -3 13 0 16 6 4 6 17 14 29 19 11 5 21 9 22 9 1 1 1 -11 0 -26z m4029 7 c-3
-5 -12 -10 -18 -10 -7 0 -6 4 3 10 19 12 23 12 15 0z m79 -19 c5 -1 -1 -12
-14 -26 -13 -14 -20 -25 -16 -25 5 0 3 -7 -4 -15 -15 -18 -33 -20 -27 -2 2 6
0 20 -5 29 -6 13 -5 16 5 12 8 -3 14 2 14 11 0 9 -6 14 -14 11 -8 -3 -11 -1
-8 4 4 6 19 8 33 6 15 -2 31 -5 36 -5z m-4027 -16 c0 -8 -4 -12 -9 -9 -5 3 -6
10 -3 15 9 13 12 11 12 -6z m-57 -25 c0 -5 -4 -10 -10 -10 -5 0 -10 5 -10 10
0 6 5 10 10 10 6 0 10 -4 10 -10z m53 -34 c7 4 8 3 4 -1 -15 -17 -33 -12 -34
9 -2 19 -1 19 8 3 6 -9 16 -14 22 -11z m3953 5 c0 -16 -3 -17 -14 -9 -12 10
-7 19 13 28 1 0 1 -9 1 -19z m-3946 -51 c0 -5 -5 -10 -11 -10 -5 0 -7 5 -4 10
3 6 8 10 11 10 2 0 4 -4 4 -10z m17 -26 c-3 -3 -12 -4 -19 -1 -8 3 -5 6 6 6
11 1 17 -2 13 -5z m3968 -24 c-2 -11 3 -26 11 -34 17 -18 18 -27 1 -20 -7 2
-21 -3 -32 -12 -16 -13 -17 -15 -3 -10 22 6 33 -11 19 -28 -6 -7 -8 -16 -4
-20 4 -4 -1 -4 -11 0 -14 5 -17 4 -12 -4 4 -7 3 -12 -3 -12 -5 0 -9 9 -8 20 1
11 5 20 10 20 5 0 4 6 -2 14 -10 11 -7 17 11 30 12 9 17 16 10 16 -12 0 -12
26 1 48 12 18 16 15 12 -8z m-3895 -4 c0 -2 -8 -10 -17 -17 -16 -13 -17 -12
-4 4 13 16 21 21 21 13z m-43 -51 c0 -8 -4 -12 -8 -9 -4 2 -10 0 -14 -6 -3 -5
-1 -10 5 -10 7 0 10 -5 8 -12 -6 -17 -60 -16 -66 1 -3 8 0 11 5 8 5 -3 22 5
39 18 16 13 29 24 30 25 0 0 1 -7 1 -15z m47 6 c3 -5 -1 -14 -8 -20 -10 -9
-16 -9 -21 -1 -4 6 -1 9 7 8 7 -2 12 3 11 10 -3 14 3 16 11 3z m3856 5 c0 -2
-8 -10 -17 -17 -16 -13 -17 -12 -4 4 13 16 21 21 21 13z m-3875 -54 c-3 -3
-11 0 -18 7 -9 10 -8 11 6 5 10 -3 15 -9 12 -12z m-51 -53 c-3 -5 -10 -7 -15
-3 -5 3 -7 10 -3 15 3 5 10 7 15 3 5 -3 7 -10 3 -15z m136 1 c0 -5 -5 -10 -11
-10 -5 0 -7 5 -4 10 3 6 8 10 11 10 2 0 4 -4 4 -10z m-50 -20 c0 -5 -2 -10 -4
-10 -3 0 -8 5 -11 10 -3 6 -1 10 4 10 6 0 11 -4 11 -10z m-3 -52 c-3 -7 -5 -2
-5 12 0 14 2 19 5 13 2 -7 2 -19 0 -25z m3866 -22 c3 3 11 3 18 -1 8 -6 4 -12
-12 -21 -13 -7 -19 -13 -13 -14 19 0 23 -26 4 -26 -13 0 -16 7 -14 29 2 15 0
26 -4 23 -5 -3 -9 1 -9 9 0 10 4 12 12 5 7 -5 15 -7 18 -4z m-3857 -8 c4 -7 3
-8 -4 -4 -7 4 -12 2 -12 -5 0 -7 -3 -10 -6 -6 -6 5 3 27 11 27 2 0 7 -5 11
-12z m39 -18 c3 -5 1 -10 -4 -10 -6 0 -11 5 -11 10 0 6 2 10 4 10 3 0 8 -4 11
-10z m-35 -20 c0 -5 -4 -10 -10 -10 -5 0 -10 5 -10 10 0 6 5 10 10 10 6 0 10
-4 10 -10z m3820 -2 c0 -4 -4 -8 -9 -8 -6 0 -12 4 -15 8 -3 5 1 9 9 9 8 0 15
-4 15 -9z m-3765 -7 c3 -5 2 -12 -3 -15 -5 -3 -9 1 -9 9 0 17 3 19 12 6z
m3770 -40 c3 -6 -3 -9 -14 -8 -11 0 -17 5 -15 9 7 11 22 10 29 -1z m-3730 -11
c3 -5 1 -10 -4 -10 -6 0 -11 5 -11 10 0 6 2 10 4 10 3 0 8 -4 11 -10z m3625 0
c0 -5 -2 -10 -4 -10 -3 0 -8 5 -11 10 -3 6 -1 10 4 10 6 0 11 -4 11 -10z m-80
-45 c0 -5 -5 -3 -10 5 -5 8 -10 20 -10 25 0 6 5 3 10 -5 5 -8 10 -19 10 -25z
m-3565 -55 c-9 -14 8 -12 25 3 12 10 12 9 2 -4 -6 -9 -8 -19 -4 -24 4 -4 -3
-2 -15 4 -24 12 -31 31 -12 31 5 0 7 -4 4 -10z m5 -36 c14 -8 18 -14 10 -13
-30 3 -50 -1 -50 -10 0 -4 10 -8 22 -7 13 0 23 -5 23 -12 0 -8 9 -20 19 -28
11 -8 16 -14 11 -14 -5 0 0 -7 11 -16 19 -15 19 -15 -1 -5 -13 6 -27 6 -40 0
-19 -10 -19 -9 -2 4 18 15 24 33 8 22 -5 -3 -12 -1 -16 4 -3 6 -12 8 -19 5 -9
-3 -17 4 -21 18 -4 13 -15 32 -24 42 -15 18 -15 19 1 13 10 -3 20 -2 23 3 8
13 15 12 45 -6z m33 -44 c3 -11 1 -18 -4 -14 -5 3 -9 12 -9 20 0 20 7 17 13
-6z m101 -38 c3 -5 -1 -9 -9 -9 -8 0 -12 4 -9 9 3 4 7 8 9 8 2 0 6 -4 9 -8z
m3437 -89 c12 -16 12 -17 -2 -6 -9 7 -20 9 -24 5 -5 -4 -5 -1 -1 6 9 16 11 15
27 -5z m-3436 -61 c-3 -3 -11 0 -18 7 -9 10 -8 11 6 5 10 -3 15 -9 12 -12z
m-28 -24 c-3 -8 -6 -5 -6 6 -1 11 2 17 5 13 3 -3 4 -12 1 -19z m-50 -25 c-4
-3 0 -14 8 -23 9 -10 18 -28 20 -41 4 -23 4 -23 -10 -5 -8 10 -12 22 -10 27 9
14 -16 21 -30 9 -8 -7 -15 -10 -15 -6 0 12 25 46 34 46 5 0 6 -3 3 -7z m87
-16 c4 4 4 -1 0 -10 -7 -20 -7 -20 -23 13 -11 22 -10 23 2 8 8 -10 17 -15 21
-11z m48 -1 c7 4 8 2 4 -5 -9 -14 -36 3 -36 23 0 6 5 3 11 -7 6 -9 15 -14 21
-11z m-21 -33 c13 -16 12 -17 -3 -4 -10 7 -18 15 -18 17 0 8 8 3 21 -13z
m3373 9 c3 -5 -1 -9 -9 -9 -8 0 -12 4 -9 9 3 4 7 8 9 8 2 0 6 -4 9 -8z m-84
-123 c0 -4 -4 -11 -10 -14 -5 -3 -10 -1 -10 6 0 6 -8 18 -17 26 -16 12 -14 12
10 2 15 -7 27 -16 27 -20z m-3284 -39 c0 -27 -19 -20 -21 7 -1 12 3 19 10 17
6 -3 11 -13 11 -24z m118 22 c2 -4 -5 -9 -17 -9 -17 -2 -19 0 -7 7 18 12 18
12 24 2z m7 -59 c13 -16 12 -17 -3 -4 -10 7 -18 15 -18 17 0 8 8 3 21 -13z
m-37 -1 c2 -4 -5 -9 -17 -9 -17 -2 -19 0 -7 7 18 12 18 12 24 2z m3160 -117
c-4 -8 -10 -15 -15 -15 -5 0 -9 -4 -9 -10 0 -5 5 -9 12 -7 6 1 14 -7 16 -18 4
-16 2 -17 -11 -7 -10 9 -17 10 -22 2 -3 -5 -14 -10 -23 -9 -12 0 -9 3 7 10 18
7 21 13 13 21 -8 8 -5 16 11 29 27 22 28 23 21 4z m-3090 -23 c3 -5 -1 -9 -9
-9 -8 0 -12 4 -9 9 3 4 7 8 9 8 2 0 6 -4 9 -8z m-41 -37 c-3 -9 -8 -14 -10
-11 -3 3 -2 9 2 15 9 16 15 13 8 -4z m85 -30 c-3 -3 -9 2 -12 12 -6 14 -5 15
5 6 7 -7 10 -15 7 -18z m2938 0 c-1 -8 -5 -17 -8 -21 -5 -4 -4 16 1 34 3 9 9
-1 7 -13z m-2962 -11 c3 -8 2 -12 -4 -9 -6 3 -10 10 -10 16 0 14 7 11 14 -7z
m44 -69 c-3 -3 -9 2 -12 12 -6 14 -5 15 5 6 7 -7 10 -15 7 -18z m2904 16 c4
-1 6 -10 5 -20 -1 -22 -17 -18 -17 5 0 8 -4 13 -9 9 -5 -3 -12 -1 -15 4 -4 5
2 8 11 6 10 -2 21 -4 25 -4z m-2867 -70 c3 -5 2 -12 -3 -15 -5 -3 -9 1 -9 9 0
17 3 19 12 6z m2832 -16 c0 -8 -4 -12 -9 -9 -5 3 -6 10 -3 15 9 13 12 11 12
-6z m-83 -23 c3 -5 -1 -9 -9 -9 -8 0 -12 4 -9 9 3 4 7 8 9 8 2 0 6 -4 9 -8z
m-2731 -57 c-7 -21 -12 -19 -10 4 0 11 5 18 9 15 4 -3 5 -11 1 -19z m-16 -37
c0 -7 -11 -13 -24 -13 -29 0 -29 3 0 15 12 5 22 9 23 9 0 1 1 -5 1 -11z m2766
-15 c-3 -7 -6 -13 -8 -13 -2 0 -5 6 -8 13 -3 8 1 14 8 14 7 0 11 -6 8 -14z
m-2759 -28 c3 -8 1 -15 -4 -15 -6 0 -10 7 -10 15 0 8 2 15 4 15 2 0 6 -7 10
-15z m56 -25 c0 -5 -2 -10 -4 -10 -3 0 -8 5 -11 10 -3 6 -1 10 4 10 6 0 11 -4
11 -10z m2636 -36 c1 -9 0 -13 -4 -10 -3 4 -7 14 -8 22 -1 9 0 13 4 10 3 -4 7
-14 8 -22z m-2578 -35 c-3 -8 -7 -3 -11 10 -4 17 -3 21 5 13 5 -5 8 -16 6 -23z
m-62 -34 c-2 -5 4 -19 13 -29 15 -18 15 -18 -7 -5 -12 8 -20 19 -18 26 6 16
-20 38 -29 23 -3 -5 -12 -10 -18 -10 -7 0 -4 7 7 15 14 11 22 11 37 2 11 -7
17 -16 15 -22z m2535 8 c-12 -20 -14 -14 -5 12 4 9 9 14 11 11 3 -2 0 -13 -6
-23z m-2417 -82 c-4 -3 -9 0 -11 7 -3 6 -10 9 -15 6 -7 -4 -8 -2 -4 5 6 9 11
9 22 0 8 -6 12 -15 8 -18z m-22 -33 c-7 -7 -12 -8 -12 -2 0 6 3 14 7 17 3 4 9
5 12 2 2 -3 -1 -11 -7 -17z m28 -12 c0 -3 -4 -8 -10 -11 -5 -3 -10 -1 -10 4 0
6 5 11 10 11 6 0 10 -2 10 -4z m2407 -2 c-3 -3 -12 -4 -19 -1 -8 3 -5 6 6 6
11 1 17 -2 13 -5z m-2396 -27 c-10 -9 -11 -8 -5 6 3 10 9 15 12 12 3 -3 0 -11
-7 -18z m70 -4 c13 -16 12 -17 -3 -4 -10 7 -18 15 -18 17 0 8 8 3 21 -13z
m-46 -12 c3 -5 2 -12 -3 -15 -5 -3 -9 1 -9 9 0 17 3 19 12 6z m-25 -31 c0 -5
-4 -10 -10 -10 -5 0 -10 5 -10 10 0 6 5 10 10 10 6 0 10 -4 10 -10z m2410 -5
c0 -2 -9 -3 -19 -2 -11 0 -18 5 -15 9 4 6 34 0 34 -7z m-2315 -103 c-3 -3 -11
0 -18 7 -9 10 -8 11 6 5 10 -3 15 -9 12 -12z m30 -22 c3 -6 -1 -7 -9 -4 -18 7
-21 14 -7 14 6 0 13 -4 16 -10z m2118 -23 c4 3 7 1 7 -5 0 -19 -15 -14 -36 11
-19 22 -19 22 2 4 11 -9 24 -14 27 -10z m-2116 -19 c-3 -8 -6 -5 -6 6 -1 11 2
17 5 13 3 -3 4 -12 1 -19z m80 3 c0 -11 -5 -18 -9 -15 -4 3 -5 11 -1 19 7 21
12 19 10 -4z m2060 -26 c0 -8 -5 -15 -10 -15 -5 0 -4 -7 3 -15 10 -12 8 -16
-13 -24 -14 -5 -27 -15 -29 -22 -3 -9 -6 -8 -11 4 -4 10 -2 16 5 14 6 -1 13 4
16 12 3 9 0 11 -8 6 -9 -5 -11 -4 -6 4 6 9 11 9 22 0 8 -6 17 -10 19 -7 8 8
-22 29 -44 31 -11 0 -18 5 -15 9 3 4 16 3 29 -2 20 -7 25 -6 25 5 0 8 4 15 8
15 5 0 9 -7 9 -15z m-2091 -27 c4 -7 3 -8 -4 -4 -20 12 -13 -5 10 -23 17 -14
18 -18 5 -18 -10 0 -15 3 -12 5 3 3 -3 10 -12 17 -9 7 -13 17 -9 23 9 15 13
15 22 0z m2018 -54 c3 -8 2 -12 -4 -9 -6 3 -10 10 -10 16 0 14 7 11 14 -7z
m-2004 -18 c0 -3 -4 -8 -10 -11 -5 -3 -10 -1 -10 4 0 6 5 11 10 11 6 0 10 -2
10 -4z m31 -13 c13 -16 12 -17 -3 -4 -17 13 -22 21 -14 21 2 0 10 -8 17 -17z
m1943 8 c3 -5 -2 -15 -12 -22 -15 -12 -16 -12 -5 2 7 9 10 19 6 22 -3 4 -4 7
0 7 3 0 8 -4 11 -9z m22 -39 c-10 -11 -16 -12 -16 -4 0 7 5 12 10 12 6 0 10 8
11 18 0 11 2 13 6 4 3 -8 -2 -21 -11 -30z m-1921 10 c-3 -3 -11 0 -18 7 -9 10
-8 11 6 5 10 -3 15 -9 12 -12z m-44 -39 c13 -16 12 -17 -3 -4 -17 13 -22 21
-14 21 2 0 10 -8 17 -17z m45 -39 c1 -9 0 -13 -4 -10 -3 4 -7 14 -8 22 -1 9 0
13 4 10 3 -4 7 -14 8 -22z m1811 -60 c-3 -3 -12 -4 -19 -1 -8 3 -5 6 6 6 11 1
17 -2 13 -5z m33 -31 c0 -15 -23 -43 -31 -37 -6 3 -8 -5 -5 -22 4 -20 2 -24
-6 -16 -6 6 -16 8 -23 6 -6 -3 -12 2 -12 10 0 8 6 12 15 8 10 -3 13 -1 8 6 -4
7 -2 12 4 12 7 0 9 7 6 16 -4 10 -2 13 6 8 7 -5 9 -2 5 8 -4 12 -1 14 14 11
10 -3 19 -7 19 -10z m-60 -17 c0 -3 -4 -8 -10 -11 -5 -3 -10 -1 -10 4 0 6 5
11 10 11 6 0 10 -2 10 -4z m-1666 -58 c1 -7 5 -20 10 -28 7 -12 6 -13 -4 -3
-8 7 -15 23 -17 35 -2 12 -1 19 3 16 3 -3 6 -12 8 -20z m1581 -47 c3 -5 2 -12
-3 -15 -5 -3 -9 1 -9 9 0 17 3 19 12 6z m-1596 -34 c0 -9 -2 -9 -6 1 -2 6 -9
12 -14 12 -6 0 -6 -7 0 -19 6 -10 7 -21 4 -25 -3 -3 -1 -6 5 -6 7 0 12 6 12
13 1 6 7 1 14 -12 8 -14 16 -19 20 -13 3 6 2 13 -4 17 -15 9 -12 22 8 30 13 5
14 4 5 -6 -10 -10 -9 -16 3 -30 9 -10 14 -24 11 -31 -3 -8 -6 -6 -6 5 -1 10
-6 15 -11 12 -7 -4 -6 -13 1 -26 9 -17 13 -18 27 -7 9 8 13 8 9 1 -4 -6 -4
-13 0 -16 5 -2 2 -2 -4 -1 -7 2 -13 -3 -13 -10 0 -8 8 -13 18 -11 9 2 21 4 25
4 5 1 5 6 2 11 -3 6 -1 10 4 10 13 0 13 -3 5 -24 -3 -9 -10 -14 -14 -11 -5 3
-11 1 -14 -4 -3 -5 1 -11 9 -15 8 -3 18 2 23 11 8 14 10 13 15 -1 4 -10 3 -15
-1 -13 -8 6 -26 -13 -29 -31 -2 -7 2 -12 7 -12 6 0 10 5 10 12 0 6 3 9 6 6 3
-4 1 -16 -5 -27 -10 -17 -9 -20 4 -15 15 6 19 17 16 41 -3 20 16 24 30 5 13
-16 13 -16 -5 -2 -17 13 -19 13 -14 0 3 -8 1 -23 -4 -33 -6 -12 -5 -23 3 -33
11 -14 2 -19 -23 -15 -15 2 -8 -14 12 -26 12 -8 21 -9 25 -3 3 6 1 10 -6 10
-7 0 -10 2 -7 5 3 3 13 3 22 -1 15 -6 15 -7 -1 -19 -10 -8 -14 -17 -10 -21 4
-5 12 -2 18 6 7 11 8 9 5 -10 -3 -14 -5 -28 -5 -31 -1 -3 -8 -6 -16 -6 -16 0
-28 24 -19 38 3 6 -6 21 -20 34 -16 14 -27 19 -29 12 -3 -7 -3 7 -2 31 2 27
-1 42 -8 42 -8 0 -7 3 1 9 11 6 10 10 -5 16 -10 5 -22 9 -26 9 -12 2 -26 29
-20 40 4 5 -1 7 -11 3 -10 -4 -15 -3 -11 3 6 10 -3 13 -37 13 -22 0 -23 13 -2
21 8 3 12 11 8 17 -5 8 -3 9 7 3 15 -9 39 -15 39 -8 0 2 -18 13 -41 24 -32 17
-38 24 -29 35 8 9 8 15 0 20 -6 3 -8 11 -5 16 8 12 45 -8 44 -24z m22 10 c-10
-9 -11 -8 -5 6 3 10 9 15 12 12 3 -3 0 -11 -7 -18z m120 6 c13 -16 12 -17 -3
-4 -10 7 -18 15 -18 17 0 8 8 3 21 -13z m1467 -15 c-3 -7 5 -21 16 -31 15 -13
11 -12 -11 3 -18 12 -33 24 -33 26 0 3 5 2 10 -1 6 -3 10 -1 10 4 0 6 3 11 6
11 3 0 4 -6 2 -12z m-41 -26 c-9 -2 -15 -8 -12 -13 4 -5 2 -9 -4 -9 -5 0 -9 8
-8 19 1 13 6 17 22 12 17 -4 18 -6 2 -9z m-1487 -4 c0 -4 -4 -8 -9 -8 -6 0
-12 4 -15 8 -3 5 1 9 9 9 8 0 15 -4 15 -9z m80 6 c0 -8 -19 -13 -24 -6 -3 5 1
9 9 9 8 0 15 -2 15 -3z m-24 -40 c1 -9 0 -13 -4 -10 -3 4 -7 14 -8 22 -1 9 0
13 4 10 3 -4 7 -14 8 -22z m1418 2 c7 3 19 -3 27 -12 12 -16 12 -17 -3 -11
-18 6 -42 -15 -30 -28 4 -5 -5 0 -19 11 -15 10 -25 23 -22 28 3 4 9 3 13 -4 5
-8 10 -9 14 -2 3 6 2 13 -4 17 -5 3 -10 12 -10 18 0 7 5 4 11 -5 5 -9 15 -15
23 -12z m-1454 -21 c0 -5 -5 -3 -10 5 -5 8 -10 20 -10 25 0 6 5 3 10 -5 5 -8
10 -19 10 -25z m55 -15 c-3 -5 -12 -10 -18 -10 -7 0 -6 4 3 10 19 12 23 12 15
0z m60 -30 c3 -5 1 -10 -4 -10 -6 0 -11 5 -11 10 0 6 2 10 4 10 3 0 8 -4 11
-10z m-25 -20 c8 -5 11 -10 5 -10 -5 0 -17 5 -25 10 -8 5 -10 10 -5 10 6 0 17
-5 25 -10z m70 -24 c0 -2 -8 -10 -17 -17 -16 -13 -17 -12 -4 4 13 16 21 21 21
13z m-79 -44 c-6 -12 -7 -23 -1 -31 6 -6 2 -5 -7 3 -13 12 -14 18 -3 30 17 22
23 20 11 -2z m1254 -22 c3 -5 1 -10 -4 -10 -6 0 -11 5 -11 10 0 6 2 10 4 10 3
0 8 -4 11 -10z m-97 -64 c-7 -8 -15 -12 -17 -11 -5 6 10 25 20 25 5 0 4 -6 -3
-14z m-1042 -52 c-1 -8 -6 -17 -11 -21 -4 -4 -5 -2 -1 5 4 6 2 12 -3 12 -6 0
-11 4 -11 8 0 5 6 9 14 9 7 0 13 -6 12 -13z m21 -23 c0 -11 -5 -17 -9 -15 -4
3 -8 0 -8 -7 0 -7 -3 -10 -6 -7 -4 5 16 48 23 48 1 0 1 -9 0 -19z m967 11 c3
-5 -1 -9 -9 -9 -8 0 -12 4 -9 9 3 4 7 8 9 8 2 0 6 -4 9 -8z m57 -22 c7 -27 4
-50 -6 -50 -8 0 -12 10 -10 26 1 15 -3 28 -11 31 -8 3 -14 9 -14 14 0 9 39
-11 41 -21z m-951 6 c0 -2 -8 -10 -17 -17 -16 -13 -17 -12 -4 4 13 16 21 21
21 13z m911 -29 c-10 -9 -11 -8 -5 6 3 10 9 15 12 12 3 -3 0 -11 -7 -18z m-26
-16 c-3 -6 -11 -11 -16 -11 -5 0 -4 6 3 14 14 16 24 13 13 -3z m-975 -2 c0 -5
6 -7 13 -3 9 5 9 4 0 -6 -6 -7 -9 -18 -7 -25 3 -6 -2 -17 -9 -24 -12 -9 -16
-8 -20 3 -4 9 -2 18 4 22 6 4 4 13 -7 25 -16 18 -16 19 4 19 12 0 22 -5 22
-11z m40 -23 c0 -3 -4 -8 -10 -11 -5 -3 -10 -1 -10 4 0 6 5 11 10 11 6 0 10
-2 10 -4z m1006 -3 c-10 -11 -37 -12 -30 -2 3 5 12 9 21 9 9 0 13 -3 9 -7z
m-921 -13 c3 -6 -1 -7 -9 -4 -18 7 -21 14 -7 14 6 0 13 -4 16 -10z m30 -19 c3
-5 2 -12 -3 -15 -5 -3 -9 1 -9 9 0 17 3 19 12 6z m-55 -20 c0 -4 -5 -12 -12
-19 -13 -13 -8 -15 16 -6 9 3 13 11 9 17 -4 6 -1 7 7 2 10 -6 9 -11 -4 -21
-13 -9 -14 -13 -4 -17 7 -2 19 5 26 17 13 21 13 21 7 -1 -4 -14 -2 -23 4 -23
6 0 11 7 11 17 0 9 3 14 6 10 3 -3 3 -15 -1 -27 -5 -17 -10 -19 -21 -9 -10 8
-14 9 -14 0 0 -6 7 -14 15 -17 8 -4 15 -13 15 -21 0 -8 4 -12 10 -8 5 3 7 11
5 18 -6 16 12 44 22 33 4 -5 2 -11 -4 -13 -7 -3 -13 -9 -13 -14 0 -6 6 -7 13
-3 8 5 8 2 -2 -9 -16 -20 -2 -23 18 -4 9 7 11 7 8 1 -4 -7 0 -14 8 -18 17 -6
30 10 15 17 -6 3 -5 4 2 3 7 -2 11 -11 10 -21 -3 -16 -2 -17 12 -6 15 13 15
16 -1 35 l-18 21 24 -20 c21 -18 24 -18 18 -2 -4 9 -2 17 3 17 13 0 13 -27 0
-35 -5 -3 -10 -11 -10 -17 0 -7 5 -6 14 1 11 9 20 9 35 2 24 -13 34 -14 27 -2
-3 5 0 13 7 19 14 11 48 12 41 1 -2 -5 -11 -6 -20 -2 -8 3 -14 2 -12 -3 1 -5
-3 -19 -10 -30 -6 -12 -8 -24 -5 -28 7 -6 -12 -10 -35 -7 -8 1 -26 -6 -40 -15
-21 -14 -24 -14 -14 -2 10 13 10 17 -2 21 -7 3 -18 1 -24 -5 -7 -7 -14 -4 -21
11 -6 11 -17 18 -24 15 -7 -2 -24 7 -37 21 -13 14 -19 25 -14 25 5 0 -8 11
-29 25 -20 14 -37 31 -37 38 0 7 -4 6 -10 -3 -6 -9 -10 -10 -10 -3 0 6 5 15
11 19 8 4 7 9 -2 15 -11 7 -11 9 -1 9 7 0 10 4 7 10 -3 6 1 7 9 4 9 -3 16 -9
16 -13z m115 10 c3 -5 2 -12 -3 -15 -5 -3 -9 1 -9 9 0 17 3 19 12 6z m675 -15
c0 -2 -7 -7 -16 -10 -8 -3 -12 -2 -9 4 6 10 25 14 25 6z m-48 -25 c-4 -10 -7
-11 -10 -3 -2 7 -9 9 -14 6 -6 -4 -8 -3 -5 3 10 16 36 11 29 -6z m-548 -9 c3
-5 -1 -9 -9 -9 -8 0 -12 4 -9 9 3 4 7 8 9 8 2 0 6 -4 9 -8z m66 4 c0 -2 -7 -7
-16 -10 -8 -3 -12 -2 -9 4 6 10 25 14 25 6z m450 -20 c0 -2 -8 -10 -17 -17
-16 -13 -17 -12 -4 4 13 16 21 21 21 13z m-400 -20 c-7 -7 -13 -7 -20 0 -6 6
-3 10 10 10 13 0 16 -4 10 -10z m271 -3 c13 -16 12 -17 -3 -4 -17 13 -22 21
-14 21 2 0 10 -8 17 -17z m-444 1 c-3 -3 -12 -4 -19 -1 -8 3 -5 6 6 6 11 1 17
-2 13 -5z m96 -11 c-6 -16 -5 -17 13 -3 18 14 18 14 5 -2 -7 -10 -17 -15 -22
-12 -12 7 -11 34 1 34 5 0 6 -8 3 -17z m144 2 c0 -8 -4 -12 -9 -9 -5 3 -6 10
-3 15 9 13 12 11 12 -6z m-1 -43 c-4 -3 -14 2 -24 12 -16 18 -16 18 6 6 13 -6
21 -14 18 -18z m239 -52 c-11 -12 -12 -19 -3 -28 9 -9 6 -11 -10 -7 -11 2 -26
-3 -32 -11 -7 -7 -16 -11 -21 -8 -5 3 -9 0 -9 -6 0 -6 -5 -8 -11 -4 -7 4 -7
10 -1 16 13 13 3 50 -12 41 -6 -3 -7 -2 -3 2 12 13 36 15 44 3 3 -7 1 -8 -5
-4 -7 4 -12 1 -12 -8 0 -9 8 -14 20 -13 13 1 19 6 15 15 -3 7 0 10 6 7 5 -4
16 -1 25 5 12 10 12 16 2 29 -12 14 -11 14 5 2 16 -12 16 -16 2 -31z m-135 6
c0 -3 -4 -8 -10 -11 -5 -3 -10 -1 -10 4 0 6 5 11 10 11 6 0 10 -2 10 -4z"/>
<path d="M26 6478 c3 -4 9 -8 15 -8 5 0 9 4 9 8 0 5 -7 9 -15 9 -8 0 -12 -4
-9 -9z"/>
<path d="M106 6412 c-3 -5 11 -24 31 -43 21 -19 32 -27 25 -17 -10 13 -10 17
0 20 9 3 9 6 0 12 -7 4 -12 2 -12 -5 0 -9 -3 -9 -14 1 -8 6 -12 18 -9 26 5 15
-12 20 -21 6z"/>
<path d="M6803 6243 c4 -3 1 -13 -6 -22 -11 -14 -10 -14 5 -2 16 12 16 31 1
31 -4 0 -3 -3 0 -7z"/>
<path d="M6746 6182 l-19 -27 24 22 c12 12 21 24 18 27 -2 2 -13 -8 -23 -22z"/>
<path d="M707 5829 c7 -7 15 -10 18 -7 3 3 -2 9 -12 12 -14 6 -15 5 -6 -5z"/>
<path d="M6476 5567 c3 -10 9 -15 12 -12 3 3 0 11 -7 18 -10 9 -11 8 -5 -6z"/>
<path d="M705 5412 c-2 -3 -2 -8 1 -13 5 -9 34 -1 34 10 0 8 -27 10 -35 3z"/>
<path d="M6166 5022 c-3 -5 1 -9 9 -9 8 0 12 4 9 9 -3 4 -7 8 -9 8 -2 0 -6 -4
-9 -8z"/>
<path d="M943 4905 c0 -8 4 -12 9 -9 5 3 6 10 3 15 -9 13 -12 11 -12 -6z"/>
<path d="M949 4856 c9 -11 9 -16 0 -22 -9 -5 -7 -11 6 -21 13 -8 14 -13 5 -13
-7 0 -11 -3 -7 -6 3 -3 15 0 26 8 20 14 20 14 -5 41 -26 28 -46 38 -25 13z
m26 -36 c3 -6 -1 -7 -9 -4 -18 7 -21 14 -7 14 6 0 13 -4 16 -10z"/>
<path d="M5918 4526 c-11 -8 -14 -17 -8 -27 8 -12 12 -11 27 3 22 22 6 43 -19
24z m13 -19 c-10 -9 -11 -8 -5 6 3 10 9 15 12 12 3 -3 0 -11 -7 -18z"/>
<path d="M1062 4553 c5 -7 14 -10 19 -7 16 10 9 23 -10 21 -15 -1 -17 -4 -9
-14z"/>
<path d="M1126 4359 c5 -8 9 -17 9 -21 0 -9 11 -11 24 -6 5 2 -2 12 -17 22
-15 11 -22 13 -16 5z"/>
<path d="M5594 3824 c5 -28 16 -45 16 -25 0 7 5 9 13 5 6 -4 4 2 -6 13 -9 11
-14 23 -10 26 3 4 1 7 -6 7 -7 0 -10 -10 -7 -26z"/>
<path d="M1431 3678 c5 -10 11 -18 12 -18 2 0 3 8 3 18 0 10 -6 19 -13 19 -8
0 -9 -6 -2 -19z"/>
<path d="M1461 3587 c-8 -10 -7 -18 3 -32 11 -15 14 -16 22 -4 24 38 3 69 -25
36z m22 -3 c-7 -3 -9 -13 -6 -22 4 -14 3 -14 -5 -2 -12 16 -7 30 11 29 9 0 9
-2 0 -5z"/>
<path d="M1467 3516 c-3 -8 0 -13 6 -12 15 2 22 19 9 24 -5 1 -12 -4 -15 -12z"/>
<path d="M5582 3571 c-8 -4 -13 -11 -13 -15 1 -3 1 -7 0 -8 -5 -19 -6 -38 -1
-33 4 4 7 10 7 13 1 4 6 17 13 30 14 24 13 26 -6 13z"/>
<path d="M5556 3313 c-6 -14 -5 -15 5 -6 7 7 10 15 7 18 -3 3 -9 -2 -12 -12z"/>
<path d="M1586 3322 c-2 -4 4 -8 14 -8 10 0 16 4 14 8 -3 4 -9 8 -14 8 -5 0
-11 -4 -14 -8z"/>
<path d="M1745 2920 c-3 -6 1 -7 9 -4 18 7 21 14 7 14 -6 0 -13 -4 -16 -10z"/>
<path d="M1754 2879 c-2 -4 0 -10 6 -14 5 -3 10 -3 10 1 0 3 8 0 18 -7 15 -12
16 -12 5 2 -7 9 -11 18 -8 21 3 2 -2 5 -10 5 -9 0 -18 -4 -21 -8z"/>
<path d="M4505 1049 c-4 -6 -5 -12 -2 -15 2 -3 7 2 10 11 7 17 1 20 -8 4z"/>
<path d="M2775 820 c-2 -4 1 -7 8 -7 22 -1 42 -8 50 -18 5 -6 7 -4 4 5 -2 8
-10 14 -16 13 -6 -2 -11 1 -11 5 0 10 -29 12 -35 2z"/>
<path d="M2838 773 c6 -3 9 -10 6 -15 -4 -6 -2 -8 4 -4 6 3 13 2 17 -4 3 -5
12 -10 18 -10 7 0 4 5 -6 11 -9 6 -15 14 -13 18 3 4 -5 7 -17 8 -12 0 -16 -1
-9 -4z"/>
<path d="M2910 670 c0 -6 -6 -8 -12 -4 -7 4 -9 3 -5 -1 10 -12 37 -15 37 -5 0
5 -4 12 -10 15 -5 3 -10 1 -10 -5z"/>
<path d="M2947 579 c7 -7 15 -10 18 -7 3 3 -2 9 -12 12 -14 6 -15 5 -6 -5z"/>
<path d="M4329 823 c-13 -16 -12 -17 4 -4 9 7 17 15 17 17 0 8 -8 3 -21 -13z"/>
<path d="M3187 349 c7 -7 15 -10 18 -7 3 3 -2 9 -12 12 -14 6 -15 5 -6 -5z"/>
<path d="M3260 281 c0 -6 5 -11 10 -11 21 0 25 -2 40 -15 9 -8 24 -12 35 -11
11 2 25 0 30 -5 6 -4 17 -3 25 3 12 8 11 8 -5 3 -17 -5 -18 -4 -7 7 11 11 16
10 26 -5 12 -15 14 -15 19 -2 7 18 -24 37 -42 26 -19 -12 -81 -3 -93 14 -5 6
-8 5 -8 -4 0 -11 -3 -11 -15 -1 -10 9 -15 9 -15 1z"/>
<path d="M94 6338 c-5 -8 -2 -9 10 -5 12 5 19 0 26 -16 5 -13 9 -16 9 -6 1 15
-17 39 -30 39 -4 0 -11 -5 -15 -12z"/>
<path d="M225 6322 c-5 -4 -19 -18 -30 -32 l-20 -25 26 23 c14 12 31 22 39 22
9 0 8 -4 -4 -13 -11 -8 -16 -20 -13 -28 4 -10 6 -9 6 4 1 9 6 17 12 17 5 0 8
-4 5 -8 -2 -4 4 -9 15 -9 24 -2 24 6 0 35 -21 24 -22 25 -36 14z"/>
<path d="M80 6300 c8 -5 20 -10 25 -10 6 0 3 5 -5 10 -8 5 -19 10 -25 10 -5 0
-3 -5 5 -10z"/>
<path d="M130 6285 c0 -5 5 -17 10 -25 5 -8 10 -10 10 -5 0 6 -5 17 -10 25 -5
8 -10 11 -10 5z"/>
<path d="M250 6253 c0 -19 14 -22 35 -7 10 8 14 14 8 14 -7 0 -15 -5 -19 -11
-4 -8 -9 -7 -15 2 -6 10 -9 10 -9 2z"/>
<path d="M470 6224 c0 -6 5 -15 12 -22 12 -12 7 -15 -18 -11 -4 0 -10 -3 -13
-9 -3 -5 -15 -14 -26 -21 -19 -12 -12 -11 30 5 16 6 18 5 8 -7 -19 -19 -16
-28 7 -24 11 2 20 0 20 -6 0 -5 -5 -9 -12 -9 -6 0 -8 -3 -5 -7 4 -3 18 6 32
21 14 15 30 24 37 20 7 -5 8 -3 4 5 -5 7 -14 10 -21 7 -8 -3 -19 1 -25 9 -8
10 -8 14 0 17 7 2 3 11 -9 22 -12 11 -21 15 -21 10z m30 -59 c7 -8 11 -15 9
-16 -31 -6 -39 -6 -39 2 0 5 6 9 13 9 8 0 7 4 -3 10 -8 5 -10 10 -4 10 6 0 17
-7 24 -15z"/>
<path d="M295 6211 c-3 -5 -2 -12 3 -15 5 -3 9 1 9 9 0 17 -3 19 -12 6z"/>
<path d="M6660 6131 c-8 -6 -17 -8 -20 -6 -4 2 -14 -11 -23 -30 -12 -25 -22
-33 -36 -30 -10 2 -27 -5 -37 -16 -16 -18 -16 -19 -1 -13 9 3 17 10 17 16 0 5
4 7 10 3 12 -7 3 -31 -13 -33 -53 -7 -62 -10 -60 -18 1 -5 -6 -17 -14 -27 -18
-19 -15 -26 13 -31 11 -3 28 -7 39 -11 l20 -6 -20 13 c-21 14 -31 38 -15 38 5
0 14 -8 20 -17 8 -14 10 -14 9 -3 -3 31 1 60 9 59 19 -3 32 2 30 12 -2 6 3 14
10 16 8 3 10 -2 6 -14 -5 -14 -4 -15 4 -4 6 8 8 21 5 30 -5 13 -3 13 7 4 7 -6
20 -9 29 -6 11 4 8 -3 -9 -23 l-25 -29 28 25 c26 22 27 26 11 37 -9 7 -21 10
-25 7 -5 -3 -9 0 -9 5 0 14 37 14 45 1 3 -5 12 -10 18 -10 8 0 8 3 2 8 -6 4
-10 13 -9 20 1 6 2 17 3 23 0 5 5 8 11 4 5 -3 6 -13 3 -23 -5 -14 -3 -15 7 -5
11 10 11 15 0 28 -14 17 -20 18 -40 6z m0 -21 c-8 -5 -19 -10 -25 -10 -5 0 -3
5 5 10 8 5 20 10 25 10 6 0 3 -5 -5 -10z m-120 -116 c0 -6 -8 -11 -17 -10 -10
0 -18 -5 -19 -11 -3 -23 -4 -24 -15 -18 -7 5 -5 13 5 24 9 10 14 20 11 22 -2
3 5 5 15 5 11 0 20 -6 20 -12z"/>
<path d="M660 6105 c7 -9 15 -13 17 -11 7 7 -7 26 -19 26 -6 0 -6 -6 2 -15z"/>
<path d="M415 6100 c3 -5 8 -10 11 -10 2 0 4 5 4 10 0 6 -5 10 -11 10 -5 0 -7
-4 -4 -10z"/>
<path d="M447 6099 c7 -7 15 -10 18 -7 3 3 -2 9 -12 12 -14 6 -15 5 -6 -5z"/>
<path d="M495 6100 c-3 -5 -1 -10 4 -10 6 0 11 5 11 10 0 6 -2 10 -4 10 -3 0
-8 -4 -11 -10z"/>
<path d="M6736 6101 c-3 -5 2 -15 12 -22 15 -12 16 -12 5 2 -7 9 -10 19 -6 22
3 4 4 7 0 7 -3 0 -8 -4 -11 -9z"/>
<path d="M530 6078 c0 -6 3 -8 7 -5 3 4 13 1 22 -6 14 -11 14 -10 2 6 -15 20
-31 22 -31 5z"/>
<path d="M613 6055 c-3 -9 -3 -18 -1 -21 3 -3 8 4 11 16 6 23 -1 27 -10 5z"/>
<path d="M6576 5994 c-5 -14 -4 -15 9 -4 17 14 19 20 6 20 -5 0 -12 -7 -15
-16z"/>
<path d="M6467 5933 c-12 -11 -8 -22 14 -34 13 -6 19 -7 15 -1 -3 6 0 13 6 15
10 4 9 8 -2 16 -18 13 -24 13 -33 4z m23 -13 c0 -5 -5 -10 -11 -10 -5 0 -7 5
-4 10 3 6 8 10 11 10 2 0 4 -4 4 -10z"/>
<path d="M646 5918 c3 -5 10 -6 15 -3 13 9 11 12 -6 12 -8 0 -12 -4 -9 -9z"/>
<path d="M655 5880 c3 -5 8 -10 11 -10 2 0 4 5 4 10 0 6 -5 10 -11 10 -5 0 -7
-4 -4 -10z"/>
<path d="M6490 5855 c-11 -13 -10 -14 4 -9 9 3 16 10 16 15 0 13 -6 11 -20 -6z"/>
<path d="M6469 5823 c-1 -5 -1 -12 0 -17 1 -5 -5 -16 -14 -26 -20 -23 -5 -34
27 -20 21 10 21 10 1 6 -15 -3 -20 0 -16 10 3 8 8 12 12 10 3 -2 7 7 7 20 2
21 -14 36 -17 17z"/>
<path d="M6506 5798 c3 -5 10 -6 15 -3 13 9 11 12 -6 12 -8 0 -12 -4 -9 -9z"/>
<path d="M646 5683 c-6 -14 -5 -15 5 -6 7 7 10 15 7 18 -3 3 -9 -2 -12 -12z"/>
<path d="M662 5668 c-18 -18 -15 -51 3 -45 8 4 17 2 20 -3 4 -6 -1 -10 -10
-10 -12 0 -15 -5 -10 -17 15 -39 15 -47 -1 -25 -17 23 -34 29 -34 11 0 -5 5
-7 10 -4 6 3 10 2 10 -4 0 -5 -4 -13 -10 -16 -5 -3 -10 -11 -10 -18 0 -6 6 -3
13 8 10 12 16 14 21 7 4 -7 3 -12 -2 -12 -5 0 -12 -11 -14 -24 -4 -18 -1 -23
10 -18 9 3 13 1 9 -5 -8 -13 1 -43 12 -43 4 0 8 7 8 15 0 8 -4 12 -9 9 -18
-11 -7 14 16 35 27 25 25 54 -6 75 -15 11 -16 15 -4 19 11 5 15 33 6 45 -2 1
-3 6 -4 11 -2 17 -12 21 -24 9z m15 -5 c-4 -3 -2 -11 3 -18 7 -8 5 -12 -5 -12
-8 0 -15 6 -15 12 0 12 10 25 18 25 3 0 2 -3 -1 -7z m19 -118 c-7 -37 -16 -49
-29 -36 -7 7 -5 16 7 30 10 11 15 25 10 32 -4 8 -3 10 5 5 6 -4 9 -18 7 -31z"/>
<path d="M593 5647 c0 -8 6 -14 14 -14 9 0 10 4 2 14 -6 7 -12 13 -14 13 -1 0
-2 -6 -2 -13z"/>
<path d="M6515 5651 c-3 -5 -2 -12 3 -15 5 -3 9 1 9 9 0 17 -3 19 -12 6z"/>
<path d="M589 5603 c-13 -16 -12 -17 4 -4 16 13 21 21 13 21 -2 0 -10 -8 -17
-17z"/>
<path d="M580 5526 c0 -2 8 -10 18 -17 15 -13 16 -12 3 4 -13 16 -21 21 -21
13z"/>
<path d="M615 5490 c-4 -6 -11 -7 -17 -4 -7 4 -8 2 -4 -5 4 -6 11 -9 16 -6 4
3 10 -1 13 -7 3 -7 4 -3 4 10 -1 25 -3 26 -12 12z"/>
<path d="M6520 5482 c0 -5 7 -9 15 -9 8 0 12 4 9 9 -3 4 -9 8 -15 8 -5 0 -9
-4 -9 -8z"/>
<path d="M629 5438 c11 -15 11 -21 0 -35 -12 -17 -12 -17 6 0 19 17 19 17 0
35 -18 16 -18 16 -6 0z"/>
<path d="M6482 5394 c-7 -8 -19 -11 -25 -8 -7 4 -3 -2 7 -14 20 -23 31 -21 31
6 0 9 6 16 13 14 8 -1 11 2 7 8 -8 14 -17 12 -33 -6z"/>
<path d="M655 5340 c3 -5 8 -10 11 -10 2 0 4 5 4 10 0 6 -5 10 -11 10 -5 0 -7
-4 -4 -10z"/>
<path d="M6450 5199 c0 -5 5 -7 10 -4 6 3 10 8 10 11 0 2 -4 4 -10 4 -5 0 -10
-5 -10 -11z"/>
<path d="M710 5166 c0 -2 7 -7 16 -10 8 -3 12 -2 9 4 -6 10 -25 14 -25 6z"/>
<path d="M859 5127 c6 -8 9 -17 6 -21 -3 -3 0 -2 6 3 12 10 4 31 -13 31 -7 0
-7 -4 1 -13z"/>
<path d="M6307 5106 c-4 -10 -1 -13 8 -9 8 3 12 9 9 14 -7 12 -11 11 -17 -5z"/>
<path d="M715 5100 c3 -5 8 -10 11 -10 2 0 4 5 4 10 0 6 -5 10 -11 10 -5 0 -7
-4 -4 -10z"/>
<path d="M6295 5031 c-3 -5 -2 -12 3 -15 5 -3 9 1 9 9 0 17 -3 19 -12 6z"/>
<path d="M876 4923 c-6 -14 -5 -15 5 -6 7 7 10 15 7 18 -3 3 -9 -2 -12 -12z"/>
<path d="M836 4918 c3 -5 10 -6 15 -3 13 9 11 12 -6 12 -8 0 -12 -4 -9 -9z"/>
<path d="M6098 4873 c-8 -10 -13 -29 -11 -43 2 -14 4 -31 5 -37 1 -10 5 -10
16 -1 9 8 10 14 3 16 -6 2 -11 8 -11 13 0 11 23 7 32 -6 4 -5 6 0 6 12 -2 14
-8 20 -20 18 -10 -2 -18 2 -18 10 0 9 6 12 15 9 9 -4 15 0 15 10 0 21 -13 20
-32 -1z"/>
<path d="M876 4807 c3 -10 9 -15 12 -12 3 3 0 11 -7 18 -10 9 -11 8 -5 -6z"/>
<path d="M6135 4761 c-4 -7 0 -8 11 -4 11 4 15 3 10 -5 -3 -6 -2 -13 3 -16 5
-4 8 2 7 11 -3 20 -21 28 -31 14z"/>
<path d="M870 4746 c0 -2 7 -7 16 -10 8 -3 12 -2 9 4 -6 10 -25 14 -25 6z"/>
<path d="M6023 4644 c-4 -12 -7 -13 -14 -3 -4 8 -11 10 -14 7 -4 -4 4 -17 16
-30 13 -13 21 -19 17 -14 -14 17 -8 29 7 16 9 -8 15 -8 15 -2 0 6 -6 12 -12
15 -7 2 -9 8 -5 13 5 5 14 2 20 -7 11 -15 14 -15 27 -1 13 14 12 15 -3 9 -9
-3 -19 -2 -22 3 -9 15 -25 12 -32 -6z"/>
<path d="M6153 4645 c0 -8 4 -12 9 -9 5 3 6 10 3 15 -9 13 -12 11 -12 -6z"/>
<path d="M6106 4618 c3 -5 10 -6 15 -3 13 9 11 12 -6 12 -8 0 -12 -4 -9 -9z"/>
<path d="M953 4565 c0 -8 4 -12 9 -9 5 3 6 10 3 15 -9 13 -12 11 -12 -6z"/>
<path d="M6073 4565 c0 -8 4 -12 9 -9 5 3 6 10 3 15 -9 13 -12 11 -12 -6z"/>
<path d="M5997 4555 c-8 -8 -18 -11 -22 -7 -5 4 -5 1 -1 -6 6 -11 12 -10 27 4
10 9 19 19 19 21 0 7 -9 2 -23 -12z"/>
<path d="M1014 4533 c2 -9 8 -18 15 -19 6 -1 7 0 1 3 -5 2 -8 9 -5 13 3 5 1
11 -4 14 -5 4 -8 -2 -7 -11z"/>
<path d="M5955 4411 c-3 -5 -2 -12 3 -15 5 -3 9 1 9 9 0 17 -3 19 -12 6z"/>
<path d="M1056 4298 c3 -4 11 -5 19 -1 21 7 19 12 -4 10 -11 0 -18 -5 -15 -9z"/>
<path d="M5956 4274 c-4 -9 -12 -14 -21 -10 -13 5 -13 2 1 -19 18 -28 26 -32
18 -10 -4 8 -1 22 6 30 7 9 11 18 8 21 -3 3 -8 -3 -12 -12z"/>
<path d="M1056 4267 c3 -10 9 -15 12 -12 3 3 0 11 -7 18 -10 9 -11 8 -5 -6z"/>
<path d="M1176 4254 c-4 -10 -2 -22 4 -28 19 -19 10 -29 -10 -11 -11 10 -20
15 -20 10 0 -10 40 -45 52 -45 5 0 6 -4 3 -10 -4 -6 -14 -4 -28 5 -16 10 -26
11 -37 4 -13 -9 -13 -10 2 -6 9 3 24 0 34 -8 14 -10 23 -10 32 -3 9 8 16 8 25
-1 7 -7 8 -11 2 -9 -5 2 -11 -1 -12 -6 -1 -5 -7 -13 -15 -17 -7 -5 -8 -9 -3
-10 6 0 18 -2 28 -4 9 -2 17 1 17 6 0 5 -5 9 -12 9 -7 0 -5 7 5 18 15 16 10
45 -7 43 -14 -2 -44 37 -35 46 6 6 5 14 -4 22 -12 9 -16 8 -21 -5z m37 -58 c4
-10 1 -13 -8 -9 -8 3 -12 9 -9 14 7 12 11 11 17 -5z"/>
<path d="M1101 4244 c0 -11 3 -14 6 -6 3 7 2 16 -1 19 -3 4 -6 -2 -5 -13z"/>
<path d="M5970 4245 c0 -8 4 -15 10 -15 5 0 7 7 4 15 -4 8 -8 15 -10 15 -2 0
-4 -7 -4 -15z"/>
<path d="M1126 4237 c3 -10 9 -15 12 -12 3 3 0 11 -7 18 -10 9 -11 8 -5 -6z"/>
<path d="M1119 4193 c-13 -16 -12 -17 4 -4 9 7 17 15 17 17 0 8 -8 3 -21 -13z"/>
<path d="M5887 4155 c-18 -13 -14 -45 6 -45 6 0 8 3 4 6 -3 4 4 15 16 24 16
13 24 15 29 7 5 -8 8 -6 8 6 0 19 -15 23 -26 6 -4 -7 -9 -8 -13 -1 -4 7 -12 6
-24 -3z m23 -9 c0 -2 -7 -7 -16 -10 -8 -3 -12 -2 -9 4 6 10 25 14 25 6z"/>
<path d="M1159 4133 c-12 -16 -12 -17 2 -6 9 7 20 9 24 5 5 -4 5 -1 1 6 -9 16
-11 15 -27 -5z"/>
<path d="M5794 4115 c10 -15 12 -25 6 -25 -6 0 -8 -5 -4 -11 4 -7 9 -7 13 -2
6 10 22 13 66 14 19 0 19 1 2 10 -13 8 -22 7 -33 -1 -10 -9 -14 -9 -14 -1 0 6
7 14 15 17 8 4 15 11 15 17 0 5 -8 3 -19 -7 -16 -15 -19 -15 -31 -1 -21 25
-34 17 -16 -10z"/>
<path d="M5709 4113 c-11 -13 -11 -17 -1 -20 6 -3 12 -9 12 -14 0 -6 -4 -7
-10 -4 -6 4 -7 -1 -3 -11 5 -14 8 -13 19 7 7 13 13 18 14 12 0 -7 5 -13 12
-13 7 0 6 6 -4 18 -9 9 -13 23 -11 30 7 18 -12 15 -28 -5z m18 -8 c0 -8 -4
-12 -9 -9 -5 3 -6 10 -3 15 9 13 12 11 12 -6z"/>
<path d="M5606 4074 c-11 -8 -16 -14 -10 -14 13 0 39 18 34 24 -3 2 -14 -2
-24 -10z"/>
<path d="M1194 4060 c0 -13 4 -16 10 -10 7 7 7 13 0 20 -6 6 -10 3 -10 -10z"/>
<path d="M5731 4044 c0 -11 3 -14 6 -6 3 7 2 16 -1 19 -3 4 -6 -2 -5 -13z"/>
<path d="M5750 4046 c0 -2 7 -7 16 -10 8 -3 12 -2 9 4 -6 10 -25 14 -25 6z"/>
<path d="M1213 4010 c-1 -11 2 -22 6 -24 4 -3 7 4 6 14 -2 27 -10 33 -12 10z"/>
<path d="M5670 4021 c0 -6 4 -12 8 -15 5 -3 9 1 9 9 0 8 -4 15 -9 15 -4 0 -8
-4 -8 -9z"/>
<path d="M5706 3979 c2 -4 13 -7 24 -6 23 2 17 10 -10 12 -10 1 -17 -2 -14 -6z"/>
<path d="M5665 3960 c-3 -6 1 -7 9 -4 18 7 21 14 7 14 -6 0 -13 -4 -16 -10z"/>
<path d="M1238 3943 c7 -3 16 -2 19 1 4 3 -2 6 -13 5 -11 0 -14 -3 -6 -6z"/>
<path d="M1279 3939 c-7 -4 -10 -11 -6 -16 5 -4 12 -1 17 7 6 8 10 13 11 10 0
-3 2 -13 4 -23 2 -13 -1 -17 -11 -13 -10 4 -13 2 -7 -7 14 -22 12 -37 -5 -38
-11 0 -13 -2 -4 -6 19 -7 42 16 35 35 -5 14 -3 15 7 5 19 -18 21 -43 4 -43 -8
0 -14 -4 -14 -10 0 -5 8 -6 18 -3 15 6 16 5 2 -13 -14 -18 -14 -18 4 -4 18 14
19 13 13 -3 -4 -11 -3 -16 4 -12 6 4 8 13 5 21 -3 8 0 14 7 14 8 0 6 4 -3 10
-13 9 -13 10 0 10 13 0 13 1 0 10 -8 5 -11 10 -6 10 5 0 -1 12 -15 26 -13 14
-22 28 -19 31 8 10 -26 12 -41 2z m56 -39 c10 -11 16 -20 13 -20 -3 0 -13 9
-23 20 -10 11 -16 20 -13 20 3 0 13 -9 23 -20z"/>
<path d="M5676 3935 c-9 -26 -7 -32 5 -12 6 10 9 21 6 23 -2 3 -7 -2 -11 -11z"/>
<path d="M1235 3920 c-3 -5 -1 -10 4 -10 6 0 11 5 11 10 0 6 -2 10 -4 10 -3 0
-8 -4 -11 -10z"/>
<path d="M1229 3883 c-13 -16 -12 -17 4 -4 9 7 17 15 17 17 0 8 -8 3 -21 -13z"/>
<path d="M5714 3880 c0 -13 4 -16 10 -10 7 7 7 13 0 20 -6 6 -10 3 -10 -10z"/>
<path d="M5670 3845 c0 -5 5 -17 10 -25 5 -8 10 -10 10 -5 0 6 -5 17 -10 25
-5 8 -10 11 -10 5z"/>
<path d="M1280 3820 c-12 -7 -10 -9 7 -7 12 0 19 5 17 9 -6 10 -6 10 -24 -2z"/>
<path d="M5719 3818 c-5 -9 -5 -48 -1 -43 6 6 11 45 5 45 -2 0 -4 -1 -4 -2z"/>
<path d="M1269 3783 c-13 -16 -12 -17 4 -4 16 13 21 21 13 21 -2 0 -10 -8 -17
-17z"/>
<path d="M1295 3769 c-4 -6 -5 -12 -2 -15 2 -3 7 2 10 11 7 17 1 20 -8 4z"/>
<path d="M1415 3760 c3 -5 8 -10 11 -10 2 0 4 5 4 10 0 6 -5 10 -11 10 -5 0
-7 -4 -4 -10z"/>
<path d="M1313 3747 c0 -8 6 -14 14 -14 9 0 10 4 2 14 -6 7 -12 13 -14 13 -1
0 -2 -6 -2 -13z"/>
<path d="M5654 3739 c-4 -7 -3 -10 4 -5 5 3 12 2 14 -4 2 -6 13 -12 26 -15 14
-2 20 0 16 6 -3 6 -9 8 -12 5 -3 -3 -13 1 -23 10 -13 12 -19 12 -25 3z"/>
<path d="M1353 3725 c0 -8 4 -12 9 -9 4 3 8 9 8 15 0 5 -4 9 -8 9 -5 0 -9 -7
-9 -15z"/>
<path d="M5656 3698 c3 -5 10 -6 15 -3 13 9 11 12 -6 12 -8 0 -12 -4 -9 -9z"/>
<path d="M5726 3702 c-3 -5 1 -9 9 -9 8 0 12 4 9 9 -3 4 -7 8 -9 8 -2 0 -6 -4
-9 -8z"/>
<path d="M5735 3671 c-3 -5 -2 -12 3 -15 5 -3 9 1 9 9 0 17 -3 19 -12 6z"/>
<path d="M5660 3665 c0 -2 6 -8 13 -14 10 -8 14 -7 14 2 0 8 -6 14 -14 14 -7
0 -13 -1 -13 -2z"/>
<path d="M5653 3631 c0 -11 5 -18 9 -15 4 3 5 11 1 19 -7 21 -12 19 -10 -4z"/>
<path d="M5695 3620 c3 -5 8 -10 11 -10 2 0 4 5 4 10 0 6 -5 10 -11 10 -5 0
-7 -4 -4 -10z"/>
<path d="M5636 3587 c3 -10 9 -15 12 -12 3 3 0 11 -7 18 -10 9 -11 8 -5 -6z"/>
<path d="M1376 3578 c3 -4 11 -5 19 -1 21 7 19 12 -4 10 -11 0 -18 -5 -15 -9z"/>
<path d="M1432 3465 c4 -4 4 -13 -2 -19 -6 -8 -2 -12 13 -13 12 0 16 1 9 4 -6
3 -10 9 -7 13 3 5 0 12 -7 16 -7 4 -10 4 -6 -1z"/>
<path d="M1441 3396 c-9 -11 -9 -16 1 -22 7 -4 10 -4 6 1 -4 4 -3 14 3 22 6 7
9 13 6 13 -2 0 -10 -6 -16 -14z"/>
<path d="M1466 3383 c-6 -14 -5 -15 5 -6 7 7 10 15 7 18 -3 3 -9 -2 -12 -12z"/>
<path d="M1485 3360 c-3 -5 -1 -10 4 -10 6 0 11 5 11 10 0 6 -2 10 -4 10 -3 0
-8 -4 -11 -10z"/>
<path d="M1536 3297 c3 -10 9 -15 12 -12 3 3 0 11 -7 18 -10 9 -11 8 -5 -6z"/>
<path d="M5597 3293 c-10 -9 -9 -23 1 -23 5 0 9 7 9 15 0 17 -1 18 -10 8z"/>
<path d="M5560 3255 c-11 -13 -10 -14 5 -9 9 4 20 2 25 -5 5 -9 9 -8 14 5 4
10 4 15 0 11 -4 -4 -13 -2 -19 3 -9 7 -16 6 -25 -5z"/>
<path d="M5616 3233 c-6 -14 -5 -15 5 -6 7 7 10 15 7 18 -3 3 -9 -2 -12 -12z"/>
<path d="M5569 3235 c-1 -3 -2 -8 -3 -12 -1 -5 -5 -13 -9 -20 -5 -8 -1 -11 13
-8 11 2 24 -3 30 -13 5 -9 10 -12 10 -6 0 5 -9 20 -19 31 -11 12 -17 24 -14
27 4 3 3 6 0 6 -4 0 -8 -2 -8 -5z"/>
<path d="M1570 3199 c0 -5 5 -7 10 -4 6 3 10 8 10 11 0 2 -4 4 -10 4 -5 0 -10
-5 -10 -11z"/>
<path d="M5595 3120 c3 -5 8 -10 11 -10 2 0 4 5 4 10 0 6 -5 10 -11 10 -5 0
-7 -4 -4 -10z"/>
<path d="M1669 3083 c0 -5 -2 -18 -5 -30 -2 -13 1 -23 8 -23 6 0 8 -3 5 -7 -4
-3 -2 -12 4 -20 9 -10 8 -18 -5 -32 -13 -14 -14 -18 -2 -18 8 0 14 5 13 10 -1
5 4 12 11 14 7 3 10 -1 6 -11 -4 -10 0 -14 15 -13 18 1 19 3 5 18 -10 12 -12
19 -4 24 11 7 3 28 -8 21 -4 -2 -16 6 -27 17 l-20 20 20 -6 c18 -7 19 -6 3 6
-13 11 -15 16 -6 25 9 9 9 12 0 12 -7 0 -12 -3 -13 -7z m46 -75 c5 4 5 1 1 -6
-6 -10 -11 -10 -22 -1 -8 6 -14 14 -14 16 0 3 6 0 13 -6 8 -6 18 -7 22 -3z"/>
<path d="M5585 3080 c-3 -6 1 -7 9 -4 18 7 21 14 7 14 -6 0 -13 -4 -16 -10z"/>
<path d="M1594 3054 c1 -7 6 -17 10 -21 4 -4 6 -1 4 7 -2 9 3 14 12 12 8 -2
11 0 7 4 -13 14 -35 12 -33 -2z"/>
<path d="M1641 3044 c0 -11 3 -14 6 -6 3 7 2 16 -1 19 -3 4 -6 -2 -5 -13z"/>
<path d="M5448 3034 c-4 -3 -13 -7 -22 -8 -15 -2 -66 -51 -66 -63 0 -3 10 2
21 13 15 13 23 15 26 7 5 -14 46 24 49 44 2 14 0 16 -8 7z m-14 -29 c-10 -7
-22 -11 -27 -8 -12 7 0 19 23 20 21 2 21 1 4 -12z"/>
<path d="M5470 3020 c0 -5 5 -10 10 -10 6 0 10 5 10 10 0 6 -4 10 -10 10 -5 0
-10 -4 -10 -10z"/>
<path d="M1656 3001 c4 -17 3 -21 -6 -16 -9 6 -11 4 -5 -4 5 -9 11 -9 17 -3 7
7 6 16 -1 29 -11 16 -11 15 -5 -6z"/>
<path d="M5435 2979 c-4 -6 -5 -12 -2 -15 2 -3 7 2 10 11 7 17 1 20 -8 4z"/>
<path d="M1630 2961 c0 -6 4 -13 10 -16 6 -3 7 1 4 9 -7 18 -14 21 -14 7z"/>
<path d="M1692 2900 c2 -9 -3 -14 -12 -12 -8 2 -11 0 -7 -4 13 -14 35 -12 33
2 -1 7 -6 17 -10 21 -4 4 -6 1 -4 -7z"/>
<path d="M1720 2820 c-12 -7 -10 -9 7 -7 12 0 19 5 17 9 -6 10 -6 10 -24 -2z"/>
<path d="M1780 2699 c0 -5 5 -7 10 -4 6 3 10 8 10 11 0 2 -4 4 -10 4 -5 0 -10
-5 -10 -11z"/>
<path d="M5430 2679 c0 -5 5 -7 10 -4 6 3 10 8 10 11 0 2 -4 4 -10 4 -5 0 -10
-5 -10 -11z"/>
<path d="M5394 2642 c3 -6 2 -13 -4 -17 -6 -4 -8 -10 -5 -15 3 -5 -3 -15 -14
-22 -20 -14 -19 -14 1 -27 11 -7 23 -10 26 -7 3 3 0 6 -7 6 -7 0 -9 5 -6 10 4
6 12 7 18 3 9 -5 9 -3 1 8 -12 16 -12 29 -1 46 4 6 2 15 -4 19 -7 4 -9 3 -5
-4z"/>
<path d="M5414 2616 c-3 -8 -1 -23 5 -33 9 -15 10 -13 5 11 -5 22 -4 27 6 21
9 -5 11 -4 6 3 -10 16 -15 15 -22 -2z"/>
<path d="M5400 2540 c-12 -7 -10 -9 7 -7 12 0 19 5 17 9 -6 10 -6 10 -24 -2z"/>
<path d="M1870 2500 c0 -5 5 -10 10 -10 6 0 10 5 10 10 0 6 -4 10 -10 10 -5 0
-10 -4 -10 -10z"/>
<path d="M5310 2480 c0 -5 7 -7 15 -4 8 4 15 8 15 10 0 2 -7 4 -15 4 -8 0 -15
-4 -15 -10z"/>
<path d="M1911 2413 c7 -12 15 -20 18 -17 3 2 -3 12 -13 22 -17 16 -18 16 -5
-5z"/>
<path d="M1946 2303 c-6 -14 -5 -15 5 -6 7 7 10 15 7 18 -3 3 -9 -2 -12 -12z"/>
<path d="M1933 2256 c-3 -5 -1 -6 5 -2 6 3 18 -4 26 -16 9 -12 16 -17 16 -11
0 7 -5 15 -11 19 -8 4 -7 9 2 15 10 6 7 8 -9 6 -13 -1 -26 -6 -29 -11z"/>
<path d="M2040 2196 c0 -10 5 -14 11 -10 7 4 10 1 7 -7 -3 -8 -13 -14 -24 -14
-10 0 -19 -6 -19 -12 0 -7 4 -13 9 -12 5 0 13 -5 18 -13 8 -10 9 -9 5 4 -3 9
1 22 9 29 13 10 14 8 9 -19 -4 -24 -2 -32 10 -32 18 0 20 -17 3 -23 -7 -2 -2
-2 11 0 20 4 22 2 12 -10 -9 -12 -8 -16 4 -21 9 -3 13 -10 10 -16 -3 -5 -1
-10 4 -10 19 0 26 5 26 18 0 7 7 17 15 22 8 5 11 12 7 17 -5 4 -12 2 -16 -6
-6 -10 -10 -8 -16 6 -5 10 -7 21 -7 25 1 4 -9 15 -23 24 -14 9 -23 20 -20 24
2 4 -7 18 -20 30 -21 20 -25 21 -25 6z m0 -40 c0 -3 -4 -8 -10 -11 -5 -3 -10
-1 -10 4 0 6 5 11 10 11 6 0 10 -2 10 -4z m75 -44 c-2 -3 0 -11 6 -18 5 -7 12
-25 15 -41 5 -28 5 -28 -11 -6 -8 12 -14 26 -13 30 4 11 -27 54 -34 48 -2 -3
-5 1 -5 9 0 12 4 12 24 -1 13 -9 21 -18 18 -21z"/>
<path d="M5233 2185 c4 -5 0 -17 -10 -27 -9 -10 -14 -20 -12 -22 2 -2 12 6 22
19 13 18 14 25 5 31 -7 4 -10 3 -5 -1z"/>
<path d="M1993 2127 c0 -8 6 -14 14 -14 9 0 10 4 2 14 -6 7 -12 13 -14 13 -1
0 -2 -6 -2 -13z"/>
<path d="M5160 2131 c0 -10 19 -25 25 -20 1 2 -3 10 -11 17 -8 7 -14 8 -14 3z"/>
<path d="M2033 2103 c4 -3 1 -13 -6 -22 -11 -14 -10 -14 6 -2 20 15 22 31 5
31 -6 0 -8 -3 -5 -7z"/>
<path d="M5050 2096 c0 -2 8 -10 18 -17 15 -13 16 -12 3 4 -13 16 -21 21 -21
13z"/>
<path d="M2078 2043 c7 -3 16 -2 19 1 4 3 -2 6 -13 5 -11 0 -14 -3 -6 -6z"/>
<path d="M2076 2019 c3 -5 10 -6 16 -3 7 5 9 -2 4 -22 -5 -24 -4 -26 5 -11 13
22 8 40 -14 43 -9 1 -15 -2 -11 -7z"/>
<path d="M2125 2002 c3 -3 -1 -12 -8 -21 -11 -14 -10 -14 6 -2 10 8 17 9 17 3
0 -6 -8 -16 -17 -21 -10 -6 -13 -11 -7 -11 5 0 15 5 22 12 16 16 16 -4 0 -21
-10 -11 -10 -13 0 -7 7 4 12 2 12 -6 0 -18 34 33 35 54 1 10 -1 18 -4 19 -26
4 -60 5 -56 1z m40 -10 c-3 -3 0 -11 5 -17 7 -9 5 -17 -7 -26 -16 -13 -17 -12
-4 4 7 9 9 17 3 17 -5 0 -12 6 -15 13 -3 8 1 14 9 14 8 0 12 -3 9 -5z"/>
<path d="M5070 1996 c0 -2 8 -10 18 -17 15 -13 16 -12 3 4 -13 16 -21 21 -21
13z"/>
<path d="M5023 1930 c0 -15 15 -30 31 -30 6 0 1 7 -10 15 -17 13 -17 14 -1 15
23 0 22 16 -1 16 -10 0 -19 -7 -19 -16z"/>
<path d="M4997 1882 c-16 -18 -16 -19 3 -17 11 1 22 4 26 7 3 4 12 4 19 2 7
-3 16 0 21 7 5 9 2 10 -9 6 -9 -3 -19 -2 -22 3 -9 15 -20 12 -38 -8z"/>
<path d="M2155 1849 c-4 -6 -5 -12 -2 -15 2 -3 7 2 10 11 7 17 1 20 -8 4z"/>
<path d="M2132 1791 c7 -9 13 -18 15 -20 1 -2 1 5 0 16 0 11 -7 20 -14 20 -10
0 -10 -4 -1 -16z"/>
<path d="M2270 1799 c0 -5 5 -7 10 -4 6 3 10 8 10 11 0 2 -4 4 -10 4 -5 0 -10
-5 -10 -11z"/>
<path d="M2166 1782 c-3 -5 1 -9 9 -9 8 0 12 4 9 9 -3 4 -7 8 -9 8 -2 0 -6 -4
-9 -8z"/>
<path d="M4889 1784 c-8 -31 -1 -49 19 -50 12 -1 22 3 22 7 0 5 -6 9 -13 9 -8
0 -14 7 -14 14 0 11 5 13 18 5 14 -7 17 -6 14 4 -5 12 -44 22 -46 11z"/>
<path d="M4986 1758 c3 -5 10 -6 15 -3 13 9 11 12 -6 12 -8 0 -12 -4 -9 -9z"/>
<path d="M2193 1745 c0 -8 4 -15 9 -15 4 0 8 4 8 9 0 6 -4 12 -8 15 -5 3 -9
-1 -9 -9z"/>
<path d="M2156 1713 c-6 -14 -5 -15 5 -6 7 7 10 15 7 18 -3 3 -9 -2 -12 -12z"/>
<path d="M4826 1711 c-3 -5 1 -11 9 -15 8 -3 15 -1 15 4 0 13 -18 22 -24 11z"/>
<path d="M2240 1706 c0 -2 7 -7 16 -10 8 -3 12 -2 9 4 -6 10 -25 14 -25 6z"/>
<path d="M2259 1658 c-5 -18 -6 -38 -1 -34 7 8 12 36 6 36 -2 0 -4 -1 -5 -2z"/>
<path d="M4840 1654 c0 -6 3 -14 8 -18 4 -4 8 -12 8 -17 1 -5 2 -12 3 -16 0
-5 12 -8 25 -8 13 0 22 3 19 8 -2 4 -13 7 -24 7 -11 0 -18 4 -15 9 3 4 -1 17
-9 27 -8 10 -15 14 -15 8z"/>
<path d="M2319 1610 c-7 -5 -10 -12 -6 -17 5 -4 12 -1 17 7 7 11 10 12 10 2 0
-7 4 -11 9 -7 5 3 12 2 15 -3 3 -5 -1 -9 -9 -10 -8 -1 -21 -3 -29 -4 -8 -1
-12 -8 -8 -17 4 -10 7 -11 10 -3 2 7 8 12 13 12 6 0 7 -4 4 -10 -3 -5 -2 -10
3 -10 5 0 9 -7 9 -15 0 -18 -13 -20 -20 -2 -4 9 -6 9 -6 -1 -1 -18 30 -27 39
-11 5 8 4 19 -2 26 -7 9 -7 17 0 26 20 23 -21 54 -49 37z"/>
<path d="M2290 1561 c0 -6 4 -13 10 -16 6 -3 7 1 4 9 -7 18 -14 21 -14 7z"/>
<path d="M2367 1474 c9 -15 19 -22 21 -15 6 18 18 13 19 -9 1 -11 -2 -18 -6
-16 -4 3 -13 0 -21 -6 -12 -8 -11 -9 4 -4 14 5 17 2 12 -11 -5 -15 -4 -15 9 1
8 11 15 24 15 30 0 5 6 1 14 -9 8 -11 13 -24 12 -30 -2 -5 -1 -7 1 -2 3 4 9 7
14 7 5 0 8 -3 8 -7 -3 -21 3 -31 23 -36 18 -5 19 -9 9 -21 -7 -8 -20 -12 -29
-9 -14 4 -15 3 -2 -5 8 -6 17 -9 21 -6 4 2 10 0 14 -6 3 -5 1 -10 -6 -10 -9 0
-9 -3 0 -14 9 -11 9 -20 2 -35 -14 -25 -14 -31 -1 -31 5 0 9 3 9 8 -3 19 2 33
10 28 13 -8 7 -36 -10 -47 -12 -7 -11 -9 3 -9 9 0 18 5 20 12 3 9 6 9 12 0 4
-8 -1 -15 -15 -20 l-23 -9 22 -5 c14 -4 31 2 47 14 26 20 26 21 6 34 -12 9
-17 21 -14 33 3 10 -1 22 -8 26 -9 6 -11 2 -7 -13 4 -12 1 -25 -5 -29 -7 -3
-9 -3 -5 2 4 4 3 16 -3 27 -8 14 -7 24 3 36 7 9 8 13 2 9 -7 -4 -17 0 -24 8
-8 10 -9 15 -2 15 6 0 0 12 -13 26 -14 15 -22 30 -19 35 3 5 0 17 -6 26 -9 15
-10 14 -4 -7 5 -21 3 -20 -18 10 -14 19 -30 34 -36 33 -7 -2 -12 2 -12 8 0 8
-5 8 -15 -1 -12 -10 -16 -9 -21 4 -3 9 -10 16 -15 16 -5 0 -2 -12 8 -26z m83
-37 c11 -22 11 -22 -5 -2 -9 11 -21 19 -26 17 -6 -1 -8 2 -4 8 8 13 22 4 35
-23z m74 -128 c-3 -5 0 -19 7 -31 9 -19 9 -21 -1 -11 -7 7 -14 20 -15 30 0 10
-5 25 -10 33 -8 13 -6 13 8 1 9 -7 14 -17 11 -22z m47 -76 c9 -9 7 -11 -5 -9
-9 1 -21 7 -27 13 -9 9 -7 11 5 9 9 -1 21 -7 27 -13z m-1 -27 c0 -2 -7 -7 -16
-10 -8 -3 -12 -2 -9 4 6 10 25 14 25 6z"/>
<path d="M2316 1482 c-3 -5 1 -9 9 -9 8 0 12 4 9 9 -3 4 -7 8 -9 8 -2 0 -6 -4
-9 -8z"/>
<path d="M4817 1453 c-10 -10 -8 -23 4 -23 5 0 7 5 4 10 -9 14 8 13 23 -2 8
-8 12 -8 12 -1 0 6 -7 14 -16 17 -19 7 -19 7 -27 -1z"/>
<path d="M2345 1440 c-3 -6 1 -7 9 -4 18 7 21 14 7 14 -6 0 -13 -4 -16 -10z"/>
<path d="M2421 1404 c0 -11 3 -14 6 -6 3 7 2 16 -1 19 -3 4 -6 -2 -5 -13z"/>
<path d="M4833 1405 c0 -8 4 -15 9 -15 4 0 8 4 8 9 0 6 -4 12 -8 15 -5 3 -9
-1 -9 -9z"/>
<path d="M4704 1398 c-4 -7 -3 -8 5 -4 6 4 18 3 26 -4 9 -7 15 -8 20 0 3 5 5
10 3 11 -32 7 -48 7 -54 -3z"/>
<path d="M4770 1400 c0 -5 5 -10 10 -10 6 0 10 5 10 10 0 6 -4 10 -10 10 -5 0
-10 -4 -10 -10z"/>
<path d="M2415 1369 c-4 -6 -5 -12 -2 -15 2 -3 7 2 10 11 7 17 1 20 -8 4z"/>
<path d="M2450 1365 c0 -8 4 -15 10 -15 5 0 7 7 4 15 -4 8 -8 15 -10 15 -2 0
-4 -7 -4 -15z"/>
<path d="M4713 1305 c0 -8 4 -12 9 -9 5 3 6 10 3 15 -9 13 -12 11 -12 -6z"/>
<path d="M2450 1301 c0 -6 4 -13 10 -16 6 -3 7 1 4 9 -7 18 -14 21 -14 7z"/>
<path d="M4654 1272 c-11 -27 -13 -42 -4 -42 4 0 10 7 14 15 3 8 11 15 17 15
8 0 8 -4 -1 -15 -7 -8 -10 -15 -7 -15 2 0 9 6 15 13 9 10 6 17 -8 29 -17 15
-19 15 -26 0z"/>
<path d="M4720 1280 c-9 -6 -10 -10 -3 -10 6 0 15 5 18 10 8 12 4 12 -15 0z"/>
<path d="M2455 1260 c3 -5 8 -10 11 -10 2 0 4 5 4 10 0 6 -5 10 -11 10 -5 0
-7 -4 -4 -10z"/>
<path d="M4619 1198 c-5 -10 -7 -18 -3 -18 3 0 -1 -11 -9 -24 -15 -22 -15 -25
0 -38 12 -9 15 -9 9 0 -4 6 -3 12 1 12 5 0 18 7 29 16 18 15 18 15 -3 5 -29
-15 -33 -14 -27 4 4 8 9 13 14 10 4 -2 16 2 26 10 10 8 14 15 7 15 -6 0 -15
-5 -18 -10 -4 -6 -11 -8 -16 -4 -6 3 -3 12 8 19 10 7 21 11 25 9 5 -3 8 -1 8
5 0 17 -41 8 -51 -11z"/>
<path d="M2470 1206 c0 -2 7 -7 16 -10 8 -3 12 -2 9 4 -6 10 -25 14 -25 6z"/>
<path d="M2515 1159 c1 -10 5 -22 10 -26 4 -5 5 -2 1 5 -4 6 -2 12 3 12 15 0
14 17 -2 23 -9 3 -13 -2 -12 -14z"/>
<path d="M2557 1173 c-13 -12 -7 -25 8 -19 18 7 20 -5 3 -23 -10 -11 -10 -13
0 -7 6 4 12 3 12 -3 0 -6 10 -15 21 -22 15 -8 19 -8 15 0 -4 7 1 11 13 11 26
0 27 12 1 35 -11 10 -17 22 -14 26 3 5 1 9 -5 9 -5 0 -13 -5 -16 -10 -5 -8
-11 -8 -19 -1 -7 6 -16 8 -19 4z m63 -37 c10 -13 10 -17 3 -12 -7 4 -13 2 -13
-3 0 -6 -5 -11 -11 -11 -5 0 -7 5 -4 10 3 6 1 10 -6 10 -8 0 -8 4 1 15 7 9 13
14 14 13 1 -2 8 -12 16 -22z"/>
<path d="M4670 1159 c0 -5 5 -7 10 -4 6 3 10 8 10 11 0 2 -4 4 -10 4 -5 0 -10
-5 -10 -11z"/>
<path d="M2536 1123 c-6 -14 -5 -15 5 -6 7 7 10 15 7 18 -3 3 -9 -2 -12 -12z"/>
<path d="M4630 1110 c-6 -12 -5 -17 5 -17 7 0 11 7 7 15 -3 10 -1 13 6 8 6 -3
13 -3 16 2 3 5 -2 9 -10 9 -8 0 -19 -8 -24 -17z"/>
<path d="M2550 1100 c0 -5 5 -10 10 -10 6 0 10 5 10 10 0 6 -4 10 -10 10 -5 0
-10 -4 -10 -10z"/>
<path d="M2623 1081 c-11 -17 -10 -19 9 -16 26 5 32 11 23 24 -9 16 -19 13
-32 -8z"/>
<path d="M2574 1079 c-3 -6 -1 -16 5 -22 9 -9 10 -7 5 7 -5 13 -4 17 4 12 7
-4 12 -2 12 3 0 14 -17 14 -26 0z"/>
<path d="M2615 1040 c3 -5 8 -10 11 -10 2 0 4 5 4 10 0 6 -5 10 -11 10 -5 0
-7 -4 -4 -10z"/>
<path d="M2636 1023 c-6 -14 -5 -15 5 -6 7 7 10 15 7 18 -3 3 -9 -2 -12 -12z"/>
<path d="M4530 1008 c-10 -21 -10 -21 3 -6 8 10 18 14 22 10 5 -4 5 -1 1 6
-10 17 -14 15 -26 -10z"/>
<path d="M4441 944 c-1 -16 24 -35 40 -32 8 2 13 -3 11 -10 -1 -8 2 -11 8 -7
11 7 -8 42 -28 50 -7 2 -10 0 -7 -5 3 -6 2 -10 -4 -10 -5 0 -12 6 -14 13 -4 7
-6 8 -6 1z"/>
<path d="M4508 943 c7 -3 16 -2 19 1 4 3 -2 6 -13 5 -11 0 -14 -3 -6 -6z"/>
<path d="M2678 853 c7 -3 16 -2 19 1 4 3 -2 6 -13 5 -11 0 -14 -3 -6 -6z"/>
<path d="M4380 856 c0 -3 9 -10 20 -16 11 -6 20 -8 20 -6 0 3 -9 10 -20 16
-11 6 -20 8 -20 6z"/>
<path d="M2690 821 c0 -6 4 -13 10 -16 6 -3 7 1 4 9 -7 18 -14 21 -14 7z"/>
<path d="M4356 775 c-11 -8 -15 -15 -9 -15 7 0 15 5 18 10 4 6 11 7 17 4 7 -4
8 -2 4 4 -9 14 -7 15 -30 -3z"/>
<path d="M4274 718 c-3 -4 -2 -8 2 -8 4 0 -1 -9 -11 -20 -17 -18 -14 -25 8
-21 5 1 7 -3 5 -9 -2 -7 -8 -12 -13 -12 -36 -1 -57 -46 -26 -56 7 -2 12 2 10
9 -3 29 2 38 21 34 11 -2 18 0 16 4 -3 4 1 17 8 27 10 13 11 23 4 31 -14 17 4
17 22 1 12 -11 12 -10 2 3 -6 9 -10 18 -7 20 2 3 -5 5 -16 5 -11 0 -23 -4 -25
-8z m14 -34 c-1 -5 -9 -9 -16 -10 -10 -2 -11 1 -1 12 12 14 24 13 17 -2z"/>
<path d="M4330 720 c0 -5 9 -8 20 -7 21 1 18 10 -5 13 -8 1 -15 -2 -15 -6z"/>
<path d="M2770 706 c0 -2 7 -7 16 -10 8 -3 12 -2 9 4 -6 10 -25 14 -25 6z"/>
<path d="M2813 695 c0 -8 4 -12 9 -9 5 3 6 10 3 15 -9 13 -12 11 -12 -6z"/>
<path d="M4308 643 c7 -3 16 -2 19 1 4 3 -2 6 -13 5 -11 0 -14 -3 -6 -6z"/>
<path d="M4268 613 c7 -3 16 -2 19 1 4 3 -2 6 -13 5 -11 0 -14 -3 -6 -6z"/>
<path d="M4256 581 c-4 -5 3 -7 14 -4 23 6 26 13 6 13 -8 0 -17 -4 -20 -9z"/>
<path d="M3005 571 c-3 -6 1 -14 9 -17 9 -3 13 -11 9 -17 -3 -6 -1 -7 6 -3 9
6 9 12 -1 24 -7 10 -13 18 -14 20 -1 2 -5 -2 -9 -7z"/>
<path d="M4226 563 c-6 -14 -5 -15 5 -6 7 7 10 15 7 18 -3 3 -9 -2 -12 -12z"/>
<path d="M4273 555 c0 -8 4 -12 9 -9 5 3 6 10 3 15 -9 13 -12 11 -12 -6z"/>
<path d="M4190 540 c0 -5 5 -10 10 -10 6 0 10 5 10 10 0 6 -4 10 -10 10 -5 0
-10 -4 -10 -10z"/>
<path d="M2870 501 c0 -6 4 -13 10 -16 6 -3 7 1 4 9 -7 18 -14 21 -14 7z"/>
<path d="M2971 447 c-13 -21 -12 -21 5 -5 10 10 16 20 13 22 -3 3 -11 -5 -18
-17z"/>
<path d="M4061 437 c-8 -10 -7 -14 2 -14 8 0 14 6 14 14 0 7 -1 13 -2 13 -2 0
-8 -6 -14 -13z"/>
<path d="M4133 392 c-1 -22 0 -24 9 -8 6 10 6 22 2 26 -5 5 -10 -3 -11 -18z"/>
<path d="M4099 393 c-13 -16 -12 -17 4 -4 9 7 17 15 17 17 0 8 -8 3 -21 -13z"/>
<path d="M3017 375 c-4 -8 -3 -16 1 -19 4 -3 9 4 9 15 2 23 -3 25 -10 4z"/>
<path d="M3101 341 c-10 -7 -7 -9 12 -8 14 1 23 5 20 10 -6 9 -15 9 -32 -2z"/>
<path d="M4090 340 c0 -5 5 -10 11 -10 5 0 7 5 4 10 -3 6 -8 10 -11 10 -2 0
-4 -4 -4 -10z"/>
<path d="M3889 263 c-13 -16 -12 -17 4 -4 16 13 21 21 13 21 -2 0 -10 -8 -17
-17z"/>
<path d="M3233 245 c0 -8 4 -12 9 -9 5 3 6 10 3 15 -9 13 -12 11 -12 -6z"/>
<path d="M3153 235 c0 -8 4 -12 9 -9 5 3 6 10 3 15 -9 13 -12 11 -12 -6z"/>
<path d="M3959 233 c-13 -16 -12 -17 4 -4 16 13 21 21 13 21 -2 0 -10 -8 -17
-17z"/>
<path d="M3931 204 c0 -11 3 -14 6 -6 3 7 2 16 -1 19 -3 4 -6 -2 -5 -13z"/>
<path d="M3256 198 c3 -5 10 -6 15 -3 13 9 11 12 -6 12 -8 0 -12 -4 -9 -9z"/>
<path d="M3293 188 c-2 -18 0 -20 7 -8 12 18 13 30 2 30 -4 0 -9 -10 -9 -22z"/>
<path d="M3333 175 c0 -8 4 -12 9 -9 5 3 6 10 3 15 -9 13 -12 11 -12 -6z"/>
<path d="M3379 188 c-7 -23 -4 -35 7 -35 9 0 11 4 4 12 -5 7 -7 15 -3 18 3 4
3 7 0 7 -4 0 -7 -1 -8 -2z"/>
<path d="M3870 183 c0 -6 8 -17 18 -24 16 -13 16 -13 2 6 -8 11 -16 22 -17 24
-2 2 -3 0 -3 -6z"/>
<path d="M3640 173 c5 -2 8 -9 4 -14 -3 -5 0 -9 6 -9 15 0 7 23 -8 26 -7 1 -8
0 -2 -3z"/>
<path d="M3475 160 c-3 -5 -1 -10 4 -10 6 0 11 5 11 10 0 6 -2 10 -4 10 -3 0
-8 -4 -11 -10z"/>
<path d="M3507 139 c7 -7 15 -10 18 -7 3 3 -2 9 -12 12 -14 6 -15 5 -6 -5z"/>
<path d="M3594 136 c1 -8 5 -18 8 -22 4 -3 5 1 4 10 -1 8 -5 18 -8 22 -4 3 -5
-1 -4 -10z"/>
<path d="M3760 140 c-9 -6 -10 -10 -3 -10 6 0 15 5 18 10 8 12 4 12 -15 0z"/>
<path d="M3571 124 c0 -11 3 -14 6 -6 3 7 2 16 -1 19 -3 4 -6 -2 -5 -13z"/>
<path d="M3634 129 c3 -17 33 -20 33 -3 0 10 -4 11 -13 3 -8 -7 -14 -6 -17 1
-3 6 -5 6 -3 -1z"/>
<path d="M3697 125 c3 -8 9 -12 14 -9 12 7 11 11 -5 17 -10 4 -13 1 -9 -8z"/>
</g>
</svg>
